<?xml version="1.0" encoding="UTF-8"?>
<svg version="1.1" xmlns="http://www.w3.org/2000/svg" width="2048" height="2048">
<path d="M0 0 C147.84 0 295.68 0 448 0 C448 10.56 448 21.12 448 32 C479.68 32 511.36 32 544 32 C544 21.44 544 10.88 544 0 C617.92 0 691.84 0 768 0 C768 10.56 768 21.12 768 32 C831.36 32 894.72 32 960 32 C960 53.12 960 74.24 960 96 C970.56 96 981.12 96 992 96 C992 106.56 992 117.12 992 128 C1002.56 128 1013.12 128 1024 128 C1024 191.36 1024 254.72 1024 320 C992.32 320 960.64 320 928 320 C928 330.56 928 341.12 928 352 C917.44 352 906.88 352 896 352 C896 362.56 896 373.12 896 384 C885.44 384 874.88 384 864 384 C864 394.56 864 405.12 864 416 C853.44 416 842.88 416 832 416 C832 426.56 832 437.12 832 448 C842.56 448 853.12 448 864 448 C864 479.68 864 511.36 864 544 C874.56 544 885.12 544 896 544 C896 554.56 896 565.12 896 576 C906.56 576 917.12 576 928 576 C928 597.12 928 618.24 928 640 C938.56 640 949.12 640 960 640 C960 766.72 960 893.44 960 1024 C949.44 1024 938.88 1024 928 1024 C928 1078.78 928 1133.56 928 1190 C928.66 1190 929.32 1190 930 1190 C930 1193.3 930 1196.6 930 1200 C933.96 1200 937.92 1200 942 1200 C942 1204.62 942 1209.24 942 1214 C950.58 1214 959.16 1214 968 1214 C968 1218.62 968 1223.24 968 1228 C972.62 1228 977.24 1228 982 1228 C982 1241.2 982 1254.4 982 1268 C985.96 1268 989.92 1268 994 1268 C994 1276.58 994 1285.16 994 1294 C998.62 1294 1003.24 1294 1008 1294 C1008 1306.54 1008 1319.08 1008 1332 C1011.96 1332 1015.92 1332 1020 1332 C1020 1345.2 1020 1358.4 1020 1372 C1024.62 1372 1029.24 1372 1034 1372 C1034 1411.6 1034 1451.2 1034 1492 C1029.38 1492 1024.76 1492 1020 1492 C1020 1513.78 1020 1535.56 1020 1558 C1016.04 1558 1012.08 1558 1008 1558 C1008 1562.62 1008 1567.24 1008 1572 C1003.38 1572 998.76 1572 994 1572 C994 1576.62 994 1581.24 994 1586 C990.04 1586 986.08 1586 982 1586 C982 1589.3 982 1592.6 982 1596 C985.96 1596 989.92 1596 994 1596 C994 1605.24 994 1614.48 994 1624 C998.62 1624 1003.24 1624 1008 1624 C1008 1627.96 1008 1631.92 1008 1636 C1011.96 1636 1015.92 1636 1020 1636 C1020 1653.82 1020 1671.64 1020 1690 C1011.42 1690 1002.84 1690 994 1690 C994 1685.38 994 1680.76 994 1676 C990.04 1676 986.08 1676 982 1676 C982 1672.04 982 1668.08 982 1664 C973.42 1664 964.84 1664 956 1664 C956 1659.38 956 1654.76 956 1650 C951.38 1650 946.76 1650 942 1650 C942 1645.38 942 1640.76 942 1636 C938.04 1636 934.08 1636 930 1636 C930 1632.04 930 1628.08 930 1624 C921.42 1624 912.84 1624 904 1624 C904 1627.96 904 1631.92 904 1636 C895.42 1636 886.84 1636 878 1636 C878 1640.62 878 1645.24 878 1650 C856.88 1650 835.76 1650 814 1650 C814 1654.62 814 1659.24 814 1664 C798.82 1664 783.64 1664 768 1664 C768 1674.56 768 1685.12 768 1696 C746.88 1696 725.76 1696 704 1696 C704 1706.56 704 1717.12 704 1728 C672.32 1728 640.64 1728 608 1728 C608 1738.56 608 1749.12 608 1760 C555.2 1760 502.4 1760 448 1760 C448 1770.56 448 1781.12 448 1792 C395.2 1792 342.4 1792 288 1792 C288 1781.44 288 1770.88 288 1760 C277.44 1760 266.88 1760 256 1760 C256 1749.44 256 1738.88 256 1728 C245.44 1728 234.88 1728 224 1728 C224 1685.76 224 1643.52 224 1600 C213.44 1600 202.88 1600 192 1600 C192 1589.44 192 1578.88 192 1568 C202.56 1568 213.12 1568 224 1568 C224 1536.32 224 1504.64 224 1472 C234.56 1472 245.12 1472 256 1472 C256 1450.88 256 1429.76 256 1408 C266.56 1408 277.12 1408 288 1408 C288 1397.44 288 1386.88 288 1376 C298.56 1376 309.12 1376 320 1376 C320 1365.44 320 1354.88 320 1344 C351.68 1344 383.36 1344 416 1344 C416 1354.56 416 1365.12 416 1376 C426.56 1376 437.12 1376 448 1376 C448 1386.56 448 1397.12 448 1408 C458.56 1408 469.12 1408 480 1408 C480 1429.12 480 1450.24 480 1472 C490.56 1472 501.12 1472 512 1472 C512 1482.56 512 1493.12 512 1504 C522.56 1504 533.12 1504 544 1504 C544 1493.44 544 1482.88 544 1472 C551.92 1472 559.84 1472 568 1472 C568 1469.36 568 1466.72 568 1464 C563.38 1464 558.76 1464 554 1464 C554 1429.68 554 1395.36 554 1360 C558.62 1360 563.24 1360 568 1360 C568 1342.84 568 1325.68 568 1308 C571.96 1308 575.92 1308 580 1308 C580 1299.42 580 1290.84 580 1282 C584.62 1282 589.24 1282 594 1282 C594 1277.38 594 1272.76 594 1268 C597.96 1268 601.92 1268 606 1268 C606 1263.38 606 1258.76 606 1254 C610.62 1254 615.24 1254 620 1254 C620 1249.38 620 1244.76 620 1240 C623.96 1240 627.92 1240 632 1240 C632 1236.04 632 1232.08 632 1228 C636.62 1228 641.24 1228 646 1228 C646 1223.38 646 1218.76 646 1214 C649.96 1214 653.92 1214 658 1214 C658 1209.38 658 1204.76 658 1200 C662.62 1200 667.24 1200 672 1200 C672 1196.7 672 1193.4 672 1190 C680.58 1190 689.16 1190 698 1190 C698 1185.38 698 1180.76 698 1176 C699.98 1176 701.96 1176 704 1176 C704 1115.28 704 1054.56 704 992 C714.56 992 725.12 992 736 992 C736 949.76 736 907.52 736 864 C725.44 864 714.88 864 704 864 C704 842.88 704 821.76 704 800 C693.44 800 682.88 800 672 800 C672 768.32 672 736.64 672 704 C661.44 704 650.88 704 640 704 C640 693.44 640 682.88 640 672 C629.44 672 618.88 672 608 672 C608 650.88 608 629.76 608 608 C597.44 608 586.88 608 576 608 C576 576.32 576 544.64 576 512 C565.44 512 554.88 512 544 512 C544 427.52 544 343.04 544 256 C522.88 256 501.76 256 480 256 C480 245.44 480 234.88 480 224 C416.64 224 353.28 224 288 224 C288 234.56 288 245.12 288 256 C277.44 256 266.88 256 256 256 C256 266.56 256 277.12 256 288 C213.76 288 171.52 288 128 288 C128 298.56 128 309.12 128 320 C106.88 320 85.76 320 64 320 C64 330.56 64 341.12 64 352 C85.12 352 106.24 352 128 352 C128 362.56 128 373.12 128 384 C138.56 384 149.12 384 160 384 C160 394.56 160 405.12 160 416 C170.56 416 181.12 416 192 416 C192 479.36 192 542.72 192 608 C202.56 608 213.12 608 224 608 C224 734.72 224 861.44 224 992 C213.44 992 202.88 992 192 992 C192 1034.24 192 1076.48 192 1120 C181.44 1120 170.88 1120 160 1120 C160 1151.68 160 1183.36 160 1216 C149.44 1216 138.88 1216 128 1216 C128 1247.68 128 1279.36 128 1312 C117.44 1312 106.88 1312 96 1312 C96 1322.56 96 1333.12 96 1344 C85.44 1344 74.88 1344 64 1344 C64 1375.68 64 1407.36 64 1440 C74.56 1440 85.12 1440 96 1440 C96 1503.36 96 1566.72 96 1632 C85.44 1632 74.88 1632 64 1632 C64 1653.12 64 1674.24 64 1696 C53.44 1696 42.88 1696 32 1696 C32 1706.56 32 1717.12 32 1728 C21.44 1728 10.88 1728 0 1728 C0 1738.56 0 1749.12 0 1760 C-21.12 1760 -42.24 1760 -64 1760 C-64 1770.56 -64 1781.12 -64 1792 C-85.12 1792 -106.24 1792 -128 1792 C-128 1802.56 -128 1813.12 -128 1824 C-138.56 1824 -149.12 1824 -160 1824 C-160 1834.56 -160 1845.12 -160 1856 C-170.56 1856 -181.12 1856 -192 1856 C-192 1877.12 -192 1898.24 -192 1920 C-202.56 1920 -213.12 1920 -224 1920 C-224 1898.88 -224 1877.76 -224 1856 C-234.56 1856 -245.12 1856 -256 1856 C-256 1845.44 -256 1834.88 -256 1824 C-266.56 1824 -277.12 1824 -288 1824 C-288 1792.32 -288 1760.64 -288 1728 C-372.48 1728 -456.96 1728 -544 1728 C-544 1696.32 -544 1664.64 -544 1632 C-512.32 1632 -480.64 1632 -448 1632 C-448 1610.88 -448 1589.76 -448 1568 C-490.24 1568 -532.48 1568 -576 1568 C-576 1557.44 -576 1546.88 -576 1536 C-586.56 1536 -597.12 1536 -608 1536 C-608 1514.88 -608 1493.76 -608 1472 C-639.68 1472 -671.36 1472 -704 1472 C-704 1461.44 -704 1450.88 -704 1440 C-714.56 1440 -725.12 1440 -736 1440 C-736 1429.44 -736 1418.88 -736 1408 C-746.56 1408 -757.12 1408 -768 1408 C-768 1376.32 -768 1344.64 -768 1312 C-789.12 1312 -810.24 1312 -832 1312 C-832 1290.88 -832 1269.76 -832 1248 C-842.56 1248 -853.12 1248 -864 1248 C-864 1226.88 -864 1205.76 -864 1184 C-874.56 1184 -885.12 1184 -896 1184 C-896 1004.48 -896 824.96 -896 640 C-885.44 640 -874.88 640 -864 640 C-864 629.44 -864 618.88 -864 608 C-853.44 608 -842.88 608 -832 608 C-832 586.88 -832 565.76 -832 544 C-821.44 544 -810.88 544 -800 544 C-800 533.44 -800 522.88 -800 512 C-789.44 512 -778.88 512 -768 512 C-768 501.44 -768 490.88 -768 480 C-757.44 480 -746.88 480 -736 480 C-736 469.44 -736 458.88 -736 448 C-725.44 448 -714.88 448 -704 448 C-704 437.44 -704 426.88 -704 416 C-682.88 416 -661.76 416 -640 416 C-640 405.44 -640 394.88 -640 384 C-629.44 384 -618.88 384 -608 384 C-608 278.4 -608 172.8 -608 64 C-502.4 64 -396.8 64 -288 64 C-288 74.56 -288 85.12 -288 96 C-235.2 96 -182.4 96 -128 96 C-128 85.44 -128 74.88 -128 64 C-117.44 64 -106.88 64 -96 64 C-96 53.44 -96 42.88 -96 32 C-64.32 32 -32.64 32 0 32 C0 21.44 0 10.88 0 0 Z M-640 864 C-640 906.24 -640 948.48 -640 992 C-629.44 992 -618.88 992 -608 992 C-608 949.76 -608 907.52 -608 864 C-618.56 864 -629.12 864 -640 864 Z M864 1344 C864 1380.3 864 1416.6 864 1454 C868.62 1454 873.24 1454 878 1454 C878 1457.3 878 1460.6 878 1464 C886.58 1464 895.16 1464 904 1464 C904 1460.7 904 1457.4 904 1454 C907.96 1454 911.92 1454 916 1454 C916 1436.18 916 1418.36 916 1400 C912.04 1400 908.08 1400 904 1400 C904 1386.8 904 1373.6 904 1360 C899.38 1360 894.76 1360 890 1360 C890 1355.38 890 1350.76 890 1346 C886.04 1346 882.08 1346 878 1346 C878 1345.34 878 1344.68 878 1344 C873.38 1344 868.76 1344 864 1344 Z M-256 1536 C-256 1546.56 -256 1557.12 -256 1568 C-266.56 1568 -277.12 1568 -288 1568 C-288 1589.12 -288 1610.24 -288 1632 C-256.32 1632 -224.64 1632 -192 1632 C-192 1653.12 -192 1674.24 -192 1696 C-181.44 1696 -170.88 1696 -160 1696 C-160 1685.44 -160 1674.88 -160 1664 C-138.88 1664 -117.76 1664 -96 1664 C-96 1632.32 -96 1600.64 -96 1568 C-117.12 1568 -138.24 1568 -160 1568 C-160 1557.44 -160 1546.88 -160 1536 C-191.68 1536 -223.36 1536 -256 1536 Z " fill="#312846" transform="translate(960,96)"/>
<path d="M0 0 C73.92 0 147.84 0 224 0 C224 10.56 224 21.12 224 32 C234.56 32 245.12 32 256 32 C256 42.56 256 53.12 256 64 C266.56 64 277.12 64 288 64 C288 74.56 288 85.12 288 96 C309.12 96 330.24 96 352 96 C352 74.88 352 53.76 352 32 C362.56 32 373.12 32 384 32 C384 21.44 384 10.88 384 0 C510.72 0 637.44 0 768 0 C768 21.12 768 42.24 768 64 C778.56 64 789.12 64 800 64 C800 74.56 800 85.12 800 96 C810.56 96 821.12 96 832 96 C832 159.36 832 222.72 832 288 C800.32 288 768.64 288 736 288 C736 298.56 736 309.12 736 320 C725.44 320 714.88 320 704 320 C704 330.56 704 341.12 704 352 C693.44 352 682.88 352 672 352 C672 362.56 672 373.12 672 384 C661.44 384 650.88 384 640 384 C640 394.56 640 405.12 640 416 C650.56 416 661.12 416 672 416 C672 447.68 672 479.36 672 512 C682.56 512 693.12 512 704 512 C704 522.56 704 533.12 704 544 C714.56 544 725.12 544 736 544 C736 565.12 736 586.24 736 608 C746.56 608 757.12 608 768 608 C768 734.72 768 861.44 768 992 C757.44 992 746.88 992 736 992 C736 1046.78 736 1101.56 736 1158 C736.66 1158 737.32 1158 738 1158 C738 1161.3 738 1164.6 738 1168 C741.96 1168 745.92 1168 750 1168 C750 1172.62 750 1177.24 750 1182 C758.58 1182 767.16 1182 776 1182 C776 1186.62 776 1191.24 776 1196 C780.62 1196 785.24 1196 790 1196 C790 1209.2 790 1222.4 790 1236 C793.96 1236 797.92 1236 802 1236 C802 1244.58 802 1253.16 802 1262 C806.62 1262 811.24 1262 816 1262 C816 1274.54 816 1287.08 816 1300 C819.96 1300 823.92 1300 828 1300 C828 1313.2 828 1326.4 828 1340 C832.62 1340 837.24 1340 842 1340 C842 1379.6 842 1419.2 842 1460 C837.38 1460 832.76 1460 828 1460 C828 1481.78 828 1503.56 828 1526 C824.04 1526 820.08 1526 816 1526 C816 1530.62 816 1535.24 816 1540 C811.38 1540 806.76 1540 802 1540 C802 1544.62 802 1549.24 802 1554 C798.04 1554 794.08 1554 790 1554 C790 1557.3 790 1560.6 790 1564 C793.96 1564 797.92 1564 802 1564 C802 1573.24 802 1582.48 802 1592 C806.62 1592 811.24 1592 816 1592 C816 1595.96 816 1599.92 816 1604 C819.96 1604 823.92 1604 828 1604 C828 1621.82 828 1639.64 828 1658 C819.42 1658 810.84 1658 802 1658 C802 1653.38 802 1648.76 802 1644 C798.04 1644 794.08 1644 790 1644 C790 1640.04 790 1636.08 790 1632 C781.42 1632 772.84 1632 764 1632 C764 1627.38 764 1622.76 764 1618 C759.38 1618 754.76 1618 750 1618 C750 1613.38 750 1608.76 750 1604 C746.04 1604 742.08 1604 738 1604 C738 1600.04 738 1596.08 738 1592 C729.42 1592 720.84 1592 712 1592 C712 1595.96 712 1599.92 712 1604 C703.42 1604 694.84 1604 686 1604 C686 1608.62 686 1613.24 686 1618 C664.88 1618 643.76 1618 622 1618 C622 1622.62 622 1627.24 622 1632 C606.82 1632 591.64 1632 576 1632 C576 1642.56 576 1653.12 576 1664 C554.88 1664 533.76 1664 512 1664 C512 1674.56 512 1685.12 512 1696 C480.32 1696 448.64 1696 416 1696 C416 1706.56 416 1717.12 416 1728 C363.2 1728 310.4 1728 256 1728 C256 1738.56 256 1749.12 256 1760 C203.2 1760 150.4 1760 96 1760 C96 1749.44 96 1738.88 96 1728 C85.44 1728 74.88 1728 64 1728 C64 1717.44 64 1706.88 64 1696 C53.44 1696 42.88 1696 32 1696 C32 1653.76 32 1611.52 32 1568 C21.44 1568 10.88 1568 0 1568 C0 1557.44 0 1546.88 0 1536 C10.56 1536 21.12 1536 32 1536 C32 1504.32 32 1472.64 32 1440 C42.56 1440 53.12 1440 64 1440 C64 1418.88 64 1397.76 64 1376 C74.56 1376 85.12 1376 96 1376 C96 1365.44 96 1354.88 96 1344 C106.56 1344 117.12 1344 128 1344 C128 1333.44 128 1322.88 128 1312 C159.68 1312 191.36 1312 224 1312 C224 1322.56 224 1333.12 224 1344 C234.56 1344 245.12 1344 256 1344 C256 1354.56 256 1365.12 256 1376 C266.56 1376 277.12 1376 288 1376 C288 1397.12 288 1418.24 288 1440 C298.56 1440 309.12 1440 320 1440 C320 1450.56 320 1461.12 320 1472 C330.56 1472 341.12 1472 352 1472 C352 1461.44 352 1450.88 352 1440 C359.92 1440 367.84 1440 376 1440 C376 1437.36 376 1434.72 376 1432 C371.38 1432 366.76 1432 362 1432 C362 1397.68 362 1363.36 362 1328 C366.62 1328 371.24 1328 376 1328 C376 1310.84 376 1293.68 376 1276 C379.96 1276 383.92 1276 388 1276 C388 1267.42 388 1258.84 388 1250 C392.62 1250 397.24 1250 402 1250 C402 1245.38 402 1240.76 402 1236 C405.96 1236 409.92 1236 414 1236 C414 1231.38 414 1226.76 414 1222 C418.62 1222 423.24 1222 428 1222 C428 1217.38 428 1212.76 428 1208 C431.96 1208 435.92 1208 440 1208 C440 1204.04 440 1200.08 440 1196 C444.62 1196 449.24 1196 454 1196 C454 1191.38 454 1186.76 454 1182 C457.96 1182 461.92 1182 466 1182 C466 1177.38 466 1172.76 466 1168 C470.62 1168 475.24 1168 480 1168 C480 1164.7 480 1161.4 480 1158 C488.58 1158 497.16 1158 506 1158 C506 1153.38 506 1148.76 506 1144 C507.98 1144 509.96 1144 512 1144 C512 1083.28 512 1022.56 512 960 C522.56 960 533.12 960 544 960 C544 917.76 544 875.52 544 832 C533.44 832 522.88 832 512 832 C512 810.88 512 789.76 512 768 C501.44 768 490.88 768 480 768 C480 736.32 480 704.64 480 672 C469.44 672 458.88 672 448 672 C448 661.44 448 650.88 448 640 C437.44 640 426.88 640 416 640 C416 618.88 416 597.76 416 576 C405.44 576 394.88 576 384 576 C384 512.64 384 449.28 384 384 C394.56 384 405.12 384 416 384 C416 373.44 416 362.88 416 352 C426.56 352 437.12 352 448 352 C448 341.44 448 330.88 448 320 C458.56 320 469.12 320 480 320 C480 288.32 480 256.64 480 224 C458.88 224 437.76 224 416 224 C416 202.88 416 181.76 416 160 C426.56 160 437.12 160 448 160 C448 149.44 448 138.88 448 128 C458.56 128 469.12 128 480 128 C480 117.44 480 106.88 480 96 C458.88 96 437.76 96 416 96 C416 106.56 416 117.12 416 128 C394.88 128 373.76 128 352 128 C352 149.12 352 170.24 352 192 C341.44 192 330.88 192 320 192 C320 181.44 320 170.88 320 160 C246.08 160 172.16 160 96 160 C96 138.88 96 117.76 96 96 C85.44 96 74.88 96 64 96 C64 74.88 64 53.76 64 32 C42.88 32 21.76 32 0 32 C0 21.44 0 10.88 0 0 Z M672 1312 C672 1348.3 672 1384.6 672 1422 C676.62 1422 681.24 1422 686 1422 C686 1425.3 686 1428.6 686 1432 C694.58 1432 703.16 1432 712 1432 C712 1428.7 712 1425.4 712 1422 C715.96 1422 719.92 1422 724 1422 C724 1404.18 724 1386.36 724 1368 C720.04 1368 716.08 1368 712 1368 C712 1354.8 712 1341.6 712 1328 C707.38 1328 702.76 1328 698 1328 C698 1323.38 698 1318.76 698 1314 C694.04 1314 690.08 1314 686 1314 C686 1313.34 686 1312.68 686 1312 C681.38 1312 676.76 1312 672 1312 Z " fill="#4174BB" transform="translate(1152,128)"/>
<path d="M0 0 C10.56 0 21.12 0 32 0 C32 10.56 32 21.12 32 32 C74.24 32 116.48 32 160 32 C160 42.56 160 53.12 160 64 C181.12 64 202.24 64 224 64 C224 74.56 224 85.12 224 96 C234.56 96 245.12 96 256 96 C256 106.56 256 117.12 256 128 C287.68 128 319.36 128 352 128 C352 138.56 352 149.12 352 160 C362.56 160 373.12 160 384 160 C384 170.56 384 181.12 384 192 C394.56 192 405.12 192 416 192 C416 202.56 416 213.12 416 224 C426.56 224 437.12 224 448 224 C448 234.56 448 245.12 448 256 C458.56 256 469.12 256 480 256 C480 446.08 480 636.16 480 832 C469.44 832 458.88 832 448 832 C448 853.12 448 874.24 448 896 C437.44 896 426.88 896 416 896 C416 917.12 416 938.24 416 960 C405.44 960 394.88 960 384 960 C384 970.56 384 981.12 384 992 C373.44 992 362.88 992 352 992 C352 1002.56 352 1013.12 352 1024 C330.88 1024 309.76 1024 288 1024 C288 1034.56 288 1045.12 288 1056 C256.32 1056 224.64 1056 192 1056 C192 1066.56 192 1077.12 192 1088 C128.64 1088 65.28 1088 0 1088 C0 728.96 0 369.92 0 0 Z " fill="#6E84F3" transform="translate(544,384)"/>
<path d="M0 0 C73.92 0 147.84 0 224 0 C224 10.56 224 21.12 224 32 C234.56 32 245.12 32 256 32 C256 42.56 256 53.12 256 64 C266.56 64 277.12 64 288 64 C288 74.56 288 85.12 288 96 C309.12 96 330.24 96 352 96 C352 74.88 352 53.76 352 32 C362.56 32 373.12 32 384 32 C384 21.44 384 10.88 384 0 C447.36 0 510.72 0 576 0 C576 10.56 576 21.12 576 32 C628.8 32 681.6 32 736 32 C736 42.56 736 53.12 736 64 C704.32 64 672.64 64 640 64 C640 74.56 640 85.12 640 96 C629.44 96 618.88 96 608 96 C608 106.56 608 117.12 608 128 C597.44 128 586.88 128 576 128 C576 159.68 576 191.36 576 224 C586.56 224 597.12 224 608 224 C608 234.56 608 245.12 608 256 C618.56 256 629.12 256 640 256 C640 266.56 640 277.12 640 288 C629.44 288 618.88 288 608 288 C608 319.68 608 351.36 608 384 C597.44 384 586.88 384 576 384 C576 394.56 576 405.12 576 416 C586.56 416 597.12 416 608 416 C608 426.56 608 437.12 608 448 C618.56 448 629.12 448 640 448 C640 458.56 640 469.12 640 480 C629.44 480 618.88 480 608 480 C608 490.56 608 501.12 608 512 C597.44 512 586.88 512 576 512 C576 617.6 576 723.2 576 832 C554.88 832 533.76 832 512 832 C512 810.88 512 789.76 512 768 C501.44 768 490.88 768 480 768 C480 736.32 480 704.64 480 672 C469.44 672 458.88 672 448 672 C448 661.44 448 650.88 448 640 C437.44 640 426.88 640 416 640 C416 618.88 416 597.76 416 576 C405.44 576 394.88 576 384 576 C384 512.64 384 449.28 384 384 C394.56 384 405.12 384 416 384 C416 373.44 416 362.88 416 352 C426.56 352 437.12 352 448 352 C448 341.44 448 330.88 448 320 C458.56 320 469.12 320 480 320 C480 288.32 480 256.64 480 224 C458.88 224 437.76 224 416 224 C416 202.88 416 181.76 416 160 C426.56 160 437.12 160 448 160 C448 149.44 448 138.88 448 128 C458.56 128 469.12 128 480 128 C480 117.44 480 106.88 480 96 C458.88 96 437.76 96 416 96 C416 106.56 416 117.12 416 128 C394.88 128 373.76 128 352 128 C352 149.12 352 170.24 352 192 C341.44 192 330.88 192 320 192 C320 181.44 320 170.88 320 160 C246.08 160 172.16 160 96 160 C96 138.88 96 117.76 96 96 C85.44 96 74.88 96 64 96 C64 74.88 64 53.76 64 32 C42.88 32 21.76 32 0 32 C0 21.44 0 10.88 0 0 Z " fill="#E3D320" transform="translate(1152,128)"/>
<path d="M0 0 C31.68 0 63.36 0 96 0 C96 10.56 96 21.12 96 32 C106.56 32 117.12 32 128 32 C128 42.56 128 53.12 128 64 C138.56 64 149.12 64 160 64 C160 85.12 160 106.24 160 128 C170.56 128 181.12 128 192 128 C192 138.56 192 149.12 192 160 C210.48 160 228.96 160 248 160 C248 164.62 248 169.24 248 174 C251.96 174 255.92 174 260 174 C260 183.24 260 192.48 260 202 C264.62 202 269.24 202 274 202 C274 205.96 274 209.92 274 214 C277.96 214 281.92 214 286 214 C286 218.62 286 223.24 286 228 C290.62 228 295.24 228 300 228 C300 232.62 300 237.24 300 242 C303.96 242 307.92 242 312 242 C312 245.3 312 248.6 312 252 C320.58 252 329.16 252 338 252 C338 256.62 338 261.24 338 266 C342.62 266 347.24 266 352 266 C352 270.62 352 275.24 352 280 C360.58 280 369.16 280 378 280 C378 283.96 378 287.92 378 292 C390.54 292 403.08 292 416 292 C416 301.24 416 310.48 416 320 C405.44 320 394.88 320 384 320 C384 341.12 384 362.24 384 384 C352.32 384 320.64 384 288 384 C288 394.56 288 405.12 288 416 C235.2 416 182.4 416 128 416 C128 426.56 128 437.12 128 448 C75.2 448 22.4 448 -32 448 C-32 437.44 -32 426.88 -32 416 C-42.56 416 -53.12 416 -64 416 C-64 405.44 -64 394.88 -64 384 C-74.56 384 -85.12 384 -96 384 C-96 341.76 -96 299.52 -96 256 C-106.56 256 -117.12 256 -128 256 C-128 245.44 -128 234.88 -128 224 C-117.44 224 -106.88 224 -96 224 C-96 192.32 -96 160.64 -96 128 C-85.44 128 -74.88 128 -64 128 C-64 106.88 -64 85.76 -64 64 C-53.44 64 -42.88 64 -32 64 C-32 53.44 -32 42.88 -32 32 C-21.44 32 -10.88 32 0 32 C0 21.44 0 10.88 0 0 Z " fill="#71680D" transform="translate(1280,1440)"/>
<path d="M0 0 C29.7 0 59.4 0 90 0 C90 4.62 90 9.24 90 14 C102.54 14 115.08 14 128 14 C128 18.62 128 23.24 128 28 C141.2 28 154.4 28 168 28 C168 31.96 168 35.92 168 40 C171.96 40 175.92 40 180 40 C180 44.62 180 49.24 180 54 C184.62 54 189.24 54 194 54 C194 63.24 194 72.48 194 82 C197.96 82 201.92 82 206 82 C206 85.96 206 89.92 206 94 C210.62 94 215.24 94 220 94 C220 106.54 220 119.08 220 132 C223.96 132 227.92 132 232 132 C232 180.18 232 228.36 232 278 C228.04 278 224.08 278 220 278 C220 286.58 220 295.16 220 304 C215.38 304 210.76 304 206 304 C206 313.24 206 322.48 206 332 C202.04 332 198.08 332 194 332 C194 336.62 194 341.24 194 346 C189.38 346 184.76 346 180 346 C180 349.96 180 353.92 180 358 C184.62 358 189.24 358 194 358 C194 370.54 194 383.08 194 396 C197.96 396 201.92 396 206 396 C206 400.62 206 405.24 206 410 C210.62 410 215.24 410 220 410 C220 414.62 220 419.24 220 424 C223.96 424 227.92 424 232 424 C232 432.58 232 441.16 232 450 C223.42 450 214.84 450 206 450 C206 445.38 206 440.76 206 436 C202.04 436 198.08 436 194 436 C194 432.04 194 428.08 194 424 C189.38 424 184.76 424 180 424 C180 419.38 180 414.76 180 410 C176.04 410 172.08 410 168 410 C168 405.38 168 400.76 168 396 C159.42 396 150.84 396 142 396 C142 392.7 142 389.4 142 386 C124.84 386 107.68 386 90 386 C90 389.3 90 392.6 90 396 C73.5 396 57 396 40 396 C40 400.62 40 405.24 40 410 C18.22 410 -3.56 410 -26 410 C-26 405.38 -26 400.76 -26 396 C-34.58 396 -43.16 396 -52 396 C-52 392.7 -52 389.4 -52 386 C-60.58 386 -69.16 386 -78 386 C-78 381.38 -78 376.76 -78 372 C-86.58 372 -95.16 372 -104 372 C-104 367.38 -104 362.76 -104 358 C-107.96 358 -111.92 358 -116 358 C-116 354.04 -116 350.08 -116 346 C-120.62 346 -125.24 346 -130 346 C-130 341.38 -130 336.76 -130 332 C-133.96 332 -137.92 332 -142 332 C-142 327.38 -142 322.76 -142 318 C-146.62 318 -151.24 318 -156 318 C-156 309.42 -156 300.84 -156 292 C-159.96 292 -163.92 292 -168 292 C-168 243.82 -168 195.64 -168 146 C-164.04 146 -160.08 146 -156 146 C-156 133.46 -156 120.92 -156 108 C-151.38 108 -146.76 108 -142 108 C-142 103.38 -142 98.76 -142 94 C-138.04 94 -134.08 94 -130 94 C-130 90.04 -130 86.08 -130 82 C-125.38 82 -120.76 82 -116 82 C-116 77.38 -116 72.76 -116 68 C-112.04 68 -108.08 68 -104 68 C-104 63.38 -104 58.76 -104 54 C-99.38 54 -94.76 54 -90 54 C-90 49.38 -90 44.76 -90 40 C-81.42 40 -72.84 40 -64 40 C-64 36.04 -64 32.08 -64 28 C-55.42 28 -46.84 28 -38 28 C-38 23.38 -38 18.76 -38 14 C-25.46 14 -12.92 14 0 14 C0 9.38 0 4.76 0 0 Z M102 144 C102 180.3 102 216.6 102 254 C106.62 254 111.24 254 116 254 C116 257.3 116 260.6 116 264 C124.58 264 133.16 264 142 264 C142 260.7 142 257.4 142 254 C145.96 254 149.92 254 154 254 C154 236.18 154 218.36 154 200 C150.04 200 146.08 200 142 200 C142 186.8 142 173.6 142 160 C137.38 160 132.76 160 128 160 C128 155.38 128 150.76 128 146 C124.04 146 120.08 146 116 146 C116 145.34 116 144.68 116 144 C111.38 144 106.76 144 102 144 Z " fill="#000000" transform="translate(1722,1296)"/>
<path d="M0 0 C42.24 0 84.48 0 128 0 C128 10.56 128 21.12 128 32 C138.56 32 149.12 32 160 32 C160 42.56 160 53.12 160 64 C170.56 64 181.12 64 192 64 C192 53.44 192 42.88 192 32 C202.56 32 213.12 32 224 32 C224 63.68 224 95.36 224 128 C234.56 128 245.12 128 256 128 C256 138.56 256 149.12 256 160 C266.56 160 277.12 160 288 160 C288 212.8 288 265.6 288 320 C277.44 320 266.88 320 256 320 C256 341.12 256 362.24 256 384 C234.88 384 213.76 384 192 384 C192 394.56 192 405.12 192 416 C181.44 416 170.88 416 160 416 C160 405.44 160 394.88 160 384 C128.32 384 96.64 384 64 384 C64 362.88 64 341.76 64 320 C53.44 320 42.88 320 32 320 C32 298.88 32 277.76 32 256 C21.44 256 10.88 256 0 256 C0 171.52 0 87.04 0 0 Z " fill="#4174BB" transform="translate(64,1024)"/>
<path d="M0 0 C10.56 0 21.12 0 32 0 C32 52.8 32 105.6 32 160 C21.44 160 10.88 160 0 160 C0 202.24 0 244.48 0 288 C10.56 288 21.12 288 32 288 C32 291.3 32 294.6 32 298 C63.68 298 95.36 298 128 298 C128 302.62 128 307.24 128 312 C138.56 312 149.12 312 160 312 C160 304.08 160 296.16 160 288 C149.44 288 138.88 288 128 288 C128 277.44 128 266.88 128 256 C117.44 256 106.88 256 96 256 C96 245.44 96 234.88 96 224 C85.44 224 74.88 224 64 224 C64 202.88 64 181.76 64 160 C74.56 160 85.12 160 96 160 C96 170.56 96 181.12 96 192 C106.56 192 117.12 192 128 192 C128 181.44 128 170.88 128 160 C149.12 160 170.24 160 192 160 C192 214.78 192 269.56 192 326 C192.66 326 193.32 326 194 326 C194 329.3 194 332.6 194 336 C197.96 336 201.92 336 206 336 C206 340.62 206 345.24 206 350 C214.58 350 223.16 350 232 350 C232 354.62 232 359.24 232 364 C236.62 364 241.24 364 246 364 C246 377.2 246 390.4 246 404 C249.96 404 253.92 404 258 404 C258 412.58 258 421.16 258 430 C262.62 430 267.24 430 272 430 C272 442.54 272 455.08 272 468 C275.96 468 279.92 468 284 468 C284 481.2 284 494.4 284 508 C288.62 508 293.24 508 298 508 C298 547.6 298 587.2 298 628 C293.38 628 288.76 628 284 628 C284 649.78 284 671.56 284 694 C280.04 694 276.08 694 272 694 C272 698.62 272 703.24 272 708 C267.38 708 262.76 708 258 708 C258 712.62 258 717.24 258 722 C254.04 722 250.08 722 246 722 C246 725.3 246 728.6 246 732 C249.96 732 253.92 732 258 732 C258 741.24 258 750.48 258 760 C262.62 760 267.24 760 272 760 C272 763.96 272 767.92 272 772 C275.96 772 279.92 772 284 772 C284 789.82 284 807.64 284 826 C275.42 826 266.84 826 258 826 C258 821.38 258 816.76 258 812 C254.04 812 250.08 812 246 812 C246 808.04 246 804.08 246 800 C237.42 800 228.84 800 220 800 C220 795.38 220 790.76 220 786 C215.38 786 210.76 786 206 786 C206 781.38 206 776.76 206 772 C202.04 772 198.08 772 194 772 C194 768.04 194 764.08 194 760 C185.42 760 176.84 760 168 760 C168 763.96 168 767.92 168 772 C159.42 772 150.84 772 142 772 C142 776.62 142 781.24 142 786 C120.88 786 99.76 786 78 786 C78 790.62 78 795.24 78 800 C62.82 800 47.64 800 32 800 C32 810.56 32 821.12 32 832 C10.88 832 -10.24 832 -32 832 C-32 821.44 -32 810.88 -32 800 C-21.44 800 -10.88 800 0 800 C0 790.76 0 781.52 0 772 C-12.54 772 -25.08 772 -38 772 C-38 768.04 -38 764.08 -38 760 C-46.58 760 -55.16 760 -64 760 C-64 755.38 -64 750.76 -64 746 C-68.62 746 -73.24 746 -78 746 C-78 741.38 -78 736.76 -78 732 C-86.58 732 -95.16 732 -104 732 C-104 728.7 -104 725.4 -104 722 C-107.96 722 -111.92 722 -116 722 C-116 717.38 -116 712.76 -116 708 C-120.62 708 -125.24 708 -130 708 C-130 703.38 -130 698.76 -130 694 C-133.96 694 -137.92 694 -142 694 C-142 690.04 -142 686.08 -142 682 C-146.62 682 -151.24 682 -156 682 C-156 672.76 -156 663.52 -156 654 C-159.96 654 -163.92 654 -168 654 C-168 649.38 -168 644.76 -168 640 C-175.92 640 -183.84 640 -192 640 C-192 629.44 -192 618.88 -192 608 C-184.08 608 -176.16 608 -168 608 C-168 605.36 -168 602.72 -168 600 C-172.62 600 -177.24 600 -182 600 C-182 565.68 -182 531.36 -182 496 C-177.38 496 -172.76 496 -168 496 C-168 478.84 -168 461.68 -168 444 C-164.04 444 -160.08 444 -156 444 C-156 435.42 -156 426.84 -156 418 C-151.38 418 -146.76 418 -142 418 C-142 413.38 -142 408.76 -142 404 C-138.04 404 -134.08 404 -130 404 C-130 399.38 -130 394.76 -130 390 C-125.38 390 -120.76 390 -116 390 C-116 385.38 -116 380.76 -116 376 C-112.04 376 -108.08 376 -104 376 C-104 372.04 -104 368.08 -104 364 C-99.38 364 -94.76 364 -90 364 C-90 359.38 -90 354.76 -90 350 C-86.04 350 -82.08 350 -78 350 C-78 345.38 -78 340.76 -78 336 C-73.38 336 -68.76 336 -64 336 C-64 332.7 -64 329.4 -64 326 C-55.42 326 -46.84 326 -38 326 C-38 321.38 -38 316.76 -38 312 C-36.02 312 -34.04 312 -32 312 C-32 251.28 -32 190.56 -32 128 C-21.44 128 -10.88 128 0 128 C0 85.76 0 43.52 0 0 Z M26 336 C26 340.62 26 345.24 26 350 C13.46 350 0.92 350 -12 350 C-12 354.62 -12 359.24 -12 364 C-20.58 364 -29.16 364 -38 364 C-38 367.96 -38 371.92 -38 376 C-46.58 376 -55.16 376 -64 376 C-64 380.62 -64 385.24 -64 390 C-68.62 390 -73.24 390 -78 390 C-78 394.62 -78 399.24 -78 404 C-81.96 404 -85.92 404 -90 404 C-90 408.62 -90 413.24 -90 418 C-94.62 418 -99.24 418 -104 418 C-104 421.96 -104 425.92 -104 430 C-107.96 430 -111.92 430 -116 430 C-116 434.62 -116 439.24 -116 444 C-120.62 444 -125.24 444 -130 444 C-130 456.54 -130 469.08 -130 482 C-133.96 482 -137.92 482 -142 482 C-142 530.18 -142 578.36 -142 628 C-138.04 628 -134.08 628 -130 628 C-130 636.58 -130 645.16 -130 654 C-125.38 654 -120.76 654 -116 654 C-116 658.62 -116 663.24 -116 668 C-112.04 668 -108.08 668 -104 668 C-104 672.62 -104 677.24 -104 682 C-99.38 682 -94.76 682 -90 682 C-90 685.96 -90 689.92 -90 694 C-86.04 694 -82.08 694 -78 694 C-78 698.62 -78 703.24 -78 708 C-69.42 708 -60.84 708 -52 708 C-52 712.62 -52 717.24 -52 722 C-43.42 722 -34.84 722 -26 722 C-26 725.3 -26 728.6 -26 732 C-17.42 732 -8.84 732 0 732 C0 736.62 0 741.24 0 746 C21.78 746 43.56 746 66 746 C66 741.38 66 736.76 66 732 C82.5 732 99 732 116 732 C116 728.7 116 725.4 116 722 C133.16 722 150.32 722 168 722 C168 725.3 168 728.6 168 732 C176.58 732 185.16 732 194 732 C194 736.62 194 741.24 194 746 C197.96 746 201.92 746 206 746 C206 750.62 206 755.24 206 760 C210.62 760 215.24 760 220 760 C220 763.96 220 767.92 220 772 C223.96 772 227.92 772 232 772 C232 776.62 232 781.24 232 786 C240.58 786 249.16 786 258 786 C258 777.42 258 768.84 258 760 C254.04 760 250.08 760 246 760 C246 755.38 246 750.76 246 746 C241.38 746 236.76 746 232 746 C232 741.38 232 736.76 232 732 C228.04 732 224.08 732 220 732 C220 719.46 220 706.92 220 694 C215.38 694 210.76 694 206 694 C206 690.04 206 686.08 206 682 C210.62 682 215.24 682 220 682 C220 677.38 220 672.76 220 668 C223.96 668 227.92 668 232 668 C232 658.76 232 649.52 232 640 C236.62 640 241.24 640 246 640 C246 631.42 246 622.84 246 614 C249.96 614 253.92 614 258 614 C258 565.82 258 517.64 258 468 C254.04 468 250.08 468 246 468 C246 455.46 246 442.92 246 430 C241.38 430 236.76 430 232 430 C232 426.04 232 422.08 232 418 C228.04 418 224.08 418 220 418 C220 408.76 220 399.52 220 390 C215.38 390 210.76 390 206 390 C206 385.38 206 380.76 206 376 C202.04 376 198.08 376 194 376 C194 372.04 194 368.08 194 364 C180.8 364 167.6 364 154 364 C154 359.38 154 354.76 154 350 C141.46 350 128.92 350 116 350 C116 345.38 116 340.76 116 336 C86.3 336 56.6 336 26 336 Z " fill="#000000" transform="translate(1696,960)"/>
<path d="M0 0 C31.68 0 63.36 0 96 0 C96 63.36 96 126.72 96 192 C85.44 192 74.88 192 64 192 C64 213.12 64 234.24 64 256 C53.44 256 42.88 256 32 256 C32 266.56 32 277.12 32 288 C21.44 288 10.88 288 0 288 C0 298.56 0 309.12 0 320 C-21.12 320 -42.24 320 -64 320 C-64 330.56 -64 341.12 -64 352 C-85.12 352 -106.24 352 -128 352 C-128 362.56 -128 373.12 -128 384 C-138.56 384 -149.12 384 -160 384 C-160 394.56 -160 405.12 -160 416 C-170.56 416 -181.12 416 -192 416 C-192 437.12 -192 458.24 -192 480 C-202.56 480 -213.12 480 -224 480 C-224 458.88 -224 437.76 -224 416 C-234.56 416 -245.12 416 -256 416 C-256 384.32 -256 352.64 -256 320 C-245.44 320 -234.88 320 -224 320 C-224 309.44 -224 298.88 -224 288 C-213.44 288 -202.88 288 -192 288 C-192 277.44 -192 266.88 -192 256 C-181.44 256 -170.88 256 -160 256 C-160 245.44 -160 234.88 -160 224 C-138.88 224 -117.76 224 -96 224 C-96 192.32 -96 160.64 -96 128 C-117.12 128 -138.24 128 -160 128 C-160 106.88 -160 85.76 -160 64 C-149.44 64 -138.88 64 -128 64 C-128 53.44 -128 42.88 -128 32 C-85.76 32 -43.52 32 0 32 C0 21.44 0 10.88 0 0 Z " fill="#E3D320" transform="translate(960,1536)"/>
<path d="M0 0 C10.56 0 21.12 0 32 0 C32 31.68 32 63.36 32 96 C10.88 96 -10.24 96 -32 96 C-32 106.56 -32 117.12 -32 128 C-74.24 128 -116.48 128 -160 128 C-160 138.56 -160 149.12 -160 160 C-170.56 160 -181.12 160 -192 160 C-192 170.56 -192 181.12 -192 192 C-223.68 192 -255.36 192 -288 192 C-288 202.56 -288 213.12 -288 224 C-298.56 224 -309.12 224 -320 224 C-320 245.12 -320 266.24 -320 288 C-288.32 288 -256.64 288 -224 288 C-224 319.68 -224 351.36 -224 384 C-234.56 384 -245.12 384 -256 384 C-256 394.56 -256 405.12 -256 416 C-266.56 416 -277.12 416 -288 416 C-288 437.12 -288 458.24 -288 480 C-298.56 480 -309.12 480 -320 480 C-320 448.32 -320 416.64 -320 384 C-404.48 384 -488.96 384 -576 384 C-576 352.32 -576 320.64 -576 288 C-544.32 288 -512.64 288 -480 288 C-480 266.88 -480 245.76 -480 224 C-522.24 224 -564.48 224 -608 224 C-608 213.44 -608 202.88 -608 192 C-512.96 192 -417.92 192 -320 192 C-320 181.44 -320 170.88 -320 160 C-288.32 160 -256.64 160 -224 160 C-224 149.44 -224 138.88 -224 128 C-213.44 128 -202.88 128 -192 128 C-192 117.44 -192 106.88 -192 96 C-149.76 96 -107.52 96 -64 96 C-64 85.44 -64 74.88 -64 64 C-42.88 64 -21.76 64 0 64 C0 42.88 0 21.76 0 0 Z " fill="#1A132C" transform="translate(992,1440)"/>
<path d="M0 0 C52.8 0 105.6 0 160 0 C160 10.56 160 21.12 160 32 C181.12 32 202.24 32 224 32 C224 53.12 224 74.24 224 96 C234.56 96 245.12 96 256 96 C256 117.12 256 138.24 256 160 C245.44 160 234.88 160 224 160 C224 170.56 224 181.12 224 192 C213.44 192 202.88 192 192 192 C192 202.56 192 213.12 192 224 C149.76 224 107.52 224 64 224 C64 234.56 64 245.12 64 256 C42.88 256 21.76 256 0 256 C0 245.44 0 234.88 0 224 C-10.56 224 -21.12 224 -32 224 C-32 213.44 -32 202.88 -32 192 C-42.56 192 -53.12 192 -64 192 C-64 181.44 -64 170.88 -64 160 C-85.12 160 -106.24 160 -128 160 C-128 149.44 -128 138.88 -128 128 C-138.56 128 -149.12 128 -160 128 C-160 117.44 -160 106.88 -160 96 C-149.44 96 -138.88 96 -128 96 C-128 85.44 -128 74.88 -128 64 C-117.44 64 -106.88 64 -96 64 C-96 53.44 -96 42.88 -96 32 C-64.32 32 -32.64 32 0 32 C0 21.44 0 10.88 0 0 Z " fill="#4174BB" transform="translate(992,128)"/>
<path d="M0 0 C10.56 0 21.12 0 32 0 C32 31.68 32 63.36 32 96 C21.44 96 10.88 96 0 96 C0 127.68 0 159.36 0 192 C10.56 192 21.12 192 32 192 C32 202.56 32 213.12 32 224 C21.44 224 10.88 224 0 224 C0 234.56 0 245.12 0 256 C31.68 256 63.36 256 96 256 C96 266.56 96 277.12 96 288 C85.44 288 74.88 288 64 288 C64 298.56 64 309.12 64 320 C53.44 320 42.88 320 32 320 C32 372.8 32 425.6 32 480 C21.44 480 10.88 480 0 480 C0 490.56 0 501.12 0 512 C-10.56 512 -21.12 512 -32 512 C-32 501.44 -32 490.88 -32 480 C-42.56 480 -53.12 480 -64 480 C-64 469.44 -64 458.88 -64 448 C-95.68 448 -127.36 448 -160 448 C-160 384.64 -160 321.28 -160 256 C-149.44 256 -138.88 256 -128 256 C-128 224.32 -128 192.64 -128 160 C-117.44 160 -106.88 160 -96 160 C-96 149.44 -96 138.88 -96 128 C-85.44 128 -74.88 128 -64 128 C-64 106.88 -64 85.76 -64 64 C-53.44 64 -42.88 64 -32 64 C-32 53.44 -32 42.88 -32 32 C-21.44 32 -10.88 32 0 32 C0 21.44 0 10.88 0 0 Z " fill="#E3D320" transform="translate(256,576)"/>
<path d="M0 0 C10.56 0 21.12 0 32 0 C32 10.56 32 21.12 32 32 C42.56 32 53.12 32 64 32 C64 42.56 64 53.12 64 64 C74.56 64 85.12 64 96 64 C96 85.12 96 106.24 96 128 C106.56 128 117.12 128 128 128 C128 138.56 128 149.12 128 160 C138.56 160 149.12 160 160 160 C160 170.56 160 181.12 160 192 C170.56 192 181.12 192 192 192 C192 202.56 192 213.12 192 224 C202.56 224 213.12 224 224 224 C224 234.56 224 245.12 224 256 C245.12 256 266.24 256 288 256 C288 245.44 288 234.88 288 224 C293.94 224 299.88 224 306 224 C306 227.3 306 230.6 306 234 C310.62 234 315.24 234 320 234 C320 238.62 320 243.24 320 248 C328.58 248 337.16 248 346 248 C346 251.96 346 255.92 346 260 C358.54 260 371.08 260 384 260 C384 269.24 384 278.48 384 288 C373.44 288 362.88 288 352 288 C352 309.12 352 330.24 352 352 C309.76 352 267.52 352 224 352 C224 341.44 224 330.88 224 320 C213.44 320 202.88 320 192 320 C192 309.44 192 298.88 192 288 C181.44 288 170.88 288 160 288 C160 277.44 160 266.88 160 256 C149.44 256 138.88 256 128 256 C128 245.44 128 234.88 128 224 C117.44 224 106.88 224 96 224 C96 213.44 96 202.88 96 192 C74.88 192 53.76 192 32 192 C32 213.12 32 234.24 32 256 C21.44 256 10.88 256 0 256 C0 277.12 0 298.24 0 320 C-31.68 320 -63.36 320 -96 320 C-96 256.64 -96 193.28 -96 128 C-85.44 128 -74.88 128 -64 128 C-64 106.88 -64 85.76 -64 64 C-53.44 64 -42.88 64 -32 64 C-32 53.44 -32 42.88 -32 32 C-21.44 32 -10.88 32 0 32 C0 21.44 0 10.88 0 0 Z " fill="#E3D320" transform="translate(1312,1472)"/>
<path d="M0 0 C29.7 0 59.4 0 90 0 C90 4.62 90 9.24 90 14 C102.54 14 115.08 14 128 14 C128 18.62 128 23.24 128 28 C141.2 28 154.4 28 168 28 C168 31.96 168 35.92 168 40 C171.96 40 175.92 40 180 40 C180 44.62 180 49.24 180 54 C184.62 54 189.24 54 194 54 C194 63.24 194 72.48 194 82 C197.96 82 201.92 82 206 82 C206 85.96 206 89.92 206 94 C210.62 94 215.24 94 220 94 C220 106.54 220 119.08 220 132 C223.96 132 227.92 132 232 132 C232 180.18 232 228.36 232 278 C228.04 278 224.08 278 220 278 C220 286.58 220 295.16 220 304 C215.38 304 210.76 304 206 304 C206 313.24 206 322.48 206 332 C202.04 332 198.08 332 194 332 C194 336.62 194 341.24 194 346 C189.38 346 184.76 346 180 346 C180 349.96 180 353.92 180 358 C184.62 358 189.24 358 194 358 C194 370.54 194 383.08 194 396 C197.96 396 201.92 396 206 396 C206 400.62 206 405.24 206 410 C210.62 410 215.24 410 220 410 C220 414.62 220 419.24 220 424 C223.96 424 227.92 424 232 424 C232 432.58 232 441.16 232 450 C223.42 450 214.84 450 206 450 C206 445.38 206 440.76 206 436 C202.04 436 198.08 436 194 436 C194 432.04 194 428.08 194 424 C189.38 424 184.76 424 180 424 C180 419.38 180 414.76 180 410 C176.04 410 172.08 410 168 410 C168 405.38 168 400.76 168 396 C159.42 396 150.84 396 142 396 C142 392.7 142 389.4 142 386 C124.84 386 107.68 386 90 386 C90 389.3 90 392.6 90 396 C73.5 396 57 396 40 396 C40 400.62 40 405.24 40 410 C18.22 410 -3.56 410 -26 410 C-26 405.38 -26 400.76 -26 396 C-34.58 396 -43.16 396 -52 396 C-52 392.7 -52 389.4 -52 386 C-60.58 386 -69.16 386 -78 386 C-78 381.38 -78 376.76 -78 372 C-86.58 372 -95.16 372 -104 372 C-104 367.38 -104 362.76 -104 358 C-107.96 358 -111.92 358 -116 358 C-116 354.04 -116 350.08 -116 346 C-120.62 346 -125.24 346 -130 346 C-130 341.38 -130 336.76 -130 332 C-133.96 332 -137.92 332 -142 332 C-142 327.38 -142 322.76 -142 318 C-146.62 318 -151.24 318 -156 318 C-156 309.42 -156 300.84 -156 292 C-159.96 292 -163.92 292 -168 292 C-168 243.82 -168 195.64 -168 146 C-164.04 146 -160.08 146 -156 146 C-156 133.46 -156 120.92 -156 108 C-151.38 108 -146.76 108 -142 108 C-142 103.38 -142 98.76 -142 94 C-138.04 94 -134.08 94 -130 94 C-130 90.04 -130 86.08 -130 82 C-125.38 82 -120.76 82 -116 82 C-116 77.38 -116 72.76 -116 68 C-112.04 68 -108.08 68 -104 68 C-104 63.38 -104 58.76 -104 54 C-99.38 54 -94.76 54 -90 54 C-90 49.38 -90 44.76 -90 40 C-81.42 40 -72.84 40 -64 40 C-64 36.04 -64 32.08 -64 28 C-55.42 28 -46.84 28 -38 28 C-38 23.38 -38 18.76 -38 14 C-25.46 14 -12.92 14 0 14 C0 9.38 0 4.76 0 0 Z M-12 54 C-12 58.62 -12 63.24 -12 68 C-25.2 68 -38.4 68 -52 68 C-52 72.62 -52 77.24 -52 82 C-60.58 82 -69.16 82 -78 82 C-78 85.96 -78 89.92 -78 94 C-81.96 94 -85.92 94 -90 94 C-90 103.24 -90 112.48 -90 122 C-94.62 122 -99.24 122 -104 122 C-104 125.3 -104 128.6 -104 132 C-107.96 132 -111.92 132 -116 132 C-116 141.24 -116 150.48 -116 160 C-120.62 160 -125.24 160 -130 160 C-130 191.02 -130 222.04 -130 254 C-125.38 254 -120.76 254 -116 254 C-116 257.3 -116 260.6 -116 264 C-112.04 264 -108.08 264 -104 264 C-104 277.2 -104 290.4 -104 304 C-99.38 304 -94.76 304 -90 304 C-90 308.62 -90 313.24 -90 318 C-86.04 318 -82.08 318 -78 318 C-78 322.62 -78 327.24 -78 332 C-73.38 332 -68.76 332 -64 332 C-64 336.62 -64 341.24 -64 346 C-55.42 346 -46.84 346 -38 346 C-38 349.96 -38 353.92 -38 358 C-34.04 358 -30.08 358 -26 358 C-26 362.62 -26 367.24 -26 372 C-0.26 372 25.48 372 52 372 C52 367.38 52 362.76 52 358 C68.5 358 85 358 102 358 C102 344.8 102 331.6 102 318 C98.04 318 94.08 318 90 318 C90 309.42 90 300.84 90 292 C86.04 292 82.08 292 78 292 C78 287.38 78 282.76 78 278 C74.04 278 70.08 278 66 278 C66 270.08 66 262.16 66 254 C69.96 254 73.92 254 78 254 C78 257.3 78 260.6 78 264 C81.96 264 85.92 264 90 264 C90 268.62 90 273.24 90 278 C93.96 278 97.92 278 102 278 C102 282.62 102 287.24 102 292 C106.62 292 111.24 292 116 292 C116 295.96 116 299.92 116 304 C119.96 304 123.92 304 128 304 C128 308.62 128 313.24 128 318 C136.58 318 145.16 318 154 318 C154 309.42 154 300.84 154 292 C158.62 292 163.24 292 168 292 C168 282.76 168 273.52 168 264 C171.96 264 175.92 264 180 264 C180 251.46 180 238.92 180 226 C184.62 226 189.24 226 194 226 C194 204.22 194 182.44 194 160 C189.38 160 184.76 160 180 160 C180 155.38 180 150.76 180 146 C176.04 146 172.08 146 168 146 C168 138.08 168 130.16 168 122 C163.38 122 158.76 122 154 122 C154 117.38 154 112.76 154 108 C150.04 108 146.08 108 142 108 C142 103.38 142 98.76 142 94 C137.38 94 132.76 94 128 94 C128 90.04 128 86.08 128 82 C124.04 82 120.08 82 116 82 C116 77.38 116 72.76 116 68 C111.38 68 106.76 68 102 68 C102 63.38 102 58.76 102 54 C64.38 54 26.76 54 -12 54 Z " fill="#FFFFFF" transform="translate(1722,1296)"/>
<path d="M0 0 C31.68 0 63.36 0 96 0 C96 105.6 96 211.2 96 320 C64.32 320 32.64 320 0 320 C0 309.44 0 298.88 0 288 C10.56 288 21.12 288 32 288 C32 277.44 32 266.88 32 256 C21.44 256 10.88 256 0 256 C0 224.32 0 192.64 0 160 C10.56 160 21.12 160 32 160 C32 128.32 32 96.64 32 64 C21.44 64 10.88 64 0 64 C0 74.56 0 85.12 0 96 C-10.56 96 -21.12 96 -32 96 C-32 106.56 -32 117.12 -32 128 C-42.56 128 -53.12 128 -64 128 C-64 149.12 -64 170.24 -64 192 C-74.56 192 -85.12 192 -96 192 C-96 202.56 -96 213.12 -96 224 C-106.56 224 -117.12 224 -128 224 C-128 255.68 -128 287.36 -128 320 C-138.56 320 -149.12 320 -160 320 C-160 383.36 -160 446.72 -160 512 C-170.56 512 -181.12 512 -192 512 C-192 416.96 -192 321.92 -192 224 C-181.44 224 -170.88 224 -160 224 C-160 213.44 -160 202.88 -160 192 C-149.44 192 -138.88 192 -128 192 C-128 170.88 -128 149.76 -128 128 C-117.44 128 -106.88 128 -96 128 C-96 117.44 -96 106.88 -96 96 C-85.44 96 -74.88 96 -64 96 C-64 85.44 -64 74.88 -64 64 C-53.44 64 -42.88 64 -32 64 C-32 53.44 -32 42.88 -32 32 C-21.44 32 -10.88 32 0 32 C0 21.44 0 10.88 0 0 Z " fill="#71680D" transform="translate(256,512)"/>
<path d="M0 0 C105.6 0 211.2 0 320 0 C320 10.56 320 21.12 320 32 C224.96 32 129.92 32 32 32 C32 348.8 32 665.6 32 992 C21.44 992 10.88 992 0 992 C0 928.64 0 865.28 0 800 C-10.56 800 -21.12 800 -32 800 C-32 810.56 -32 821.12 -32 832 C-42.56 832 -53.12 832 -64 832 C-64 800.32 -64 768.64 -64 736 C-53.44 736 -42.88 736 -32 736 C-32 725.44 -32 714.88 -32 704 C-21.44 704 -10.88 704 0 704 C0 587.84 0 471.68 0 352 C-10.56 352 -21.12 352 -32 352 C-32 341.44 -32 330.88 -32 320 C-21.44 320 -10.88 320 0 320 C0 214.4 0 108.8 0 0 Z " fill="#1A132C" transform="translate(352,160)"/>
<path d="M0 0 C10.56 0 21.12 0 32 0 C32 21.12 32 42.24 32 64 C42.56 64 53.12 64 64 64 C64 74.56 64 85.12 64 96 C74.56 96 85.12 96 96 96 C96 127.68 96 159.36 96 192 C106.56 192 117.12 192 128 192 C128 202.56 128 213.12 128 224 C117.44 224 106.88 224 96 224 C96 234.56 96 245.12 96 256 C85.44 256 74.88 256 64 256 C64 266.56 64 277.12 64 288 C85.12 288 106.24 288 128 288 C128 330.24 128 372.48 128 416 C106.88 416 85.76 416 64 416 C64 405.44 64 394.88 64 384 C42.88 384 21.76 384 0 384 C0 373.44 0 362.88 0 352 C-10.56 352 -21.12 352 -32 352 C-32 246.4 -32 140.8 -32 32 C-21.44 32 -10.88 32 0 32 C0 21.44 0 10.88 0 0 Z " fill="#4174BB" transform="translate(1760,608)"/>
<path d="M0 0 C10.56 0 21.12 0 32 0 C32 147.84 32 295.68 32 448 C21.44 448 10.88 448 0 448 C0 426.88 0 405.76 0 384 C-31.68 384 -63.36 384 -96 384 C-96 373.44 -96 362.88 -96 352 C-106.56 352 -117.12 352 -128 352 C-128 341.44 -128 330.88 -128 320 C-138.56 320 -149.12 320 -160 320 C-160 288.32 -160 256.64 -160 224 C-149.44 224 -138.88 224 -128 224 C-128 234.56 -128 245.12 -128 256 C-117.44 256 -106.88 256 -96 256 C-96 245.44 -96 234.88 -96 224 C-74.88 224 -53.76 224 -32 224 C-32 202.88 -32 181.76 -32 160 C-21.44 160 -10.88 160 0 160 C0 107.2 0 54.4 0 0 Z " fill="#1A132C" transform="translate(352,1184)"/>
<path d="M0 0 C21.12 0 42.24 0 64 0 C64 10.56 64 21.12 64 32 C53.44 32 42.88 32 32 32 C32 42.56 32 53.12 32 64 C21.44 64 10.88 64 0 64 C0 85.12 0 106.24 0 128 C21.12 128 42.24 128 64 128 C64 159.68 64 191.36 64 224 C53.44 224 42.88 224 32 224 C32 234.56 32 245.12 32 256 C21.44 256 10.88 256 0 256 C0 266.56 0 277.12 0 288 C-10.56 288 -21.12 288 -32 288 C-32 319.68 -32 351.36 -32 384 C-42.56 384 -53.12 384 -64 384 C-64 299.52 -64 215.04 -64 128 C-85.12 128 -106.24 128 -128 128 C-128 117.44 -128 106.88 -128 96 C-180.8 96 -233.6 96 -288 96 C-288 85.44 -288 74.88 -288 64 C-224.64 64 -161.28 64 -96 64 C-96 74.56 -96 85.12 -96 96 C-85.44 96 -74.88 96 -64 96 C-64 74.88 -64 53.76 -64 32 C-42.88 32 -21.76 32 0 32 C0 21.44 0 10.88 0 0 Z " fill="#203756" transform="translate(1568,224)"/>
<path d="M0 0 C21.12 0 42.24 0 64 0 C64 10.56 64 21.12 64 32 C53.44 32 42.88 32 32 32 C32 391.04 32 750.08 32 1120 C21.44 1120 10.88 1120 0 1120 C0 750.4 0 380.8 0 0 Z " fill="#3D4985" transform="translate(512,352)"/>
<path d="M0 0 C10.56 0 21.12 0 32 0 C32 10.56 32 21.12 32 32 C53.12 32 74.24 32 96 32 C96 42.56 96 53.12 96 64 C117.12 64 138.24 64 160 64 C160 95.68 160 127.36 160 160 C138.88 160 117.76 160 96 160 C96 170.56 96 181.12 96 192 C85.44 192 74.88 192 64 192 C64 181.44 64 170.88 64 160 C53.44 160 42.88 160 32 160 C32 181.12 32 202.24 32 224 C42.56 224 53.12 224 64 224 C64 234.56 64 245.12 64 256 C74.56 256 85.12 256 96 256 C96 266.56 96 277.12 96 288 C106.56 288 117.12 288 128 288 C128 295.92 128 303.84 128 312 C117.44 312 106.88 312 96 312 C96 307.38 96 302.76 96 298 C64.32 298 32.64 298 0 298 C0 294.7 0 291.4 0 288 C-10.56 288 -21.12 288 -32 288 C-32 245.76 -32 203.52 -32 160 C-21.44 160 -10.88 160 0 160 C0 107.2 0 54.4 0 0 Z " fill="#E3D320" transform="translate(1728,960)"/>
<path d="M0 0 C34.32 0 68.64 0 104 0 C104 4.62 104 9.24 104 14 C111.92 14 119.84 14 128 14 C128 17.3 128 20.6 128 24 C132.62 24 137.24 24 142 24 C142 27.96 142 31.92 142 36 C137.38 36 132.76 36 128 36 C128 72.3 128 108.6 128 146 C124.04 146 120.08 146 116 146 C116 141.38 116 136.76 116 132 C108.08 132 100.16 132 92 132 C92 127.38 92 122.76 92 118 C87.38 118 82.76 118 78 118 C78 143.74 78 169.48 78 196 C82.62 196 87.24 196 92 196 C92 205.24 92 214.48 92 224 C70.22 224 48.44 224 26 224 C26 219.38 26 214.76 26 210 C17.42 210 8.84 210 0 210 C0 205.38 0 200.76 0 196 C-3.96 196 -7.92 196 -12 196 C-12 192.04 -12 188.08 -12 184 C-16.62 184 -21.24 184 -26 184 C-26 179.38 -26 174.76 -26 170 C-29.96 170 -33.92 170 -38 170 C-38 162.08 -38 154.16 -38 146 C-46.58 146 -55.16 146 -64 146 C-64 118.94 -64 91.88 -64 64 C-60.04 64 -56.08 64 -52 64 C-52 60.04 -52 56.08 -52 52 C-47.38 52 -42.76 52 -38 52 C-38 42.76 -38 33.52 -38 24 C-34.04 24 -30.08 24 -26 24 C-26 20.7 -26 17.4 -26 14 C-17.42 14 -8.84 14 0 14 C0 9.38 0 4.76 0 0 Z " fill="#4174BB" transform="translate(1696,1404)"/>
<path d="M0 0 C31.68 0 63.36 0 96 0 C96 10.56 96 21.12 96 32 C138.24 32 180.48 32 224 32 C224 53.12 224 74.24 224 96 C213.44 96 202.88 96 192 96 C192 106.56 192 117.12 192 128 C181.44 128 170.88 128 160 128 C160 149.12 160 170.24 160 192 C149.44 192 138.88 192 128 192 C128 160.32 128 128.64 128 96 C43.52 96 -40.96 96 -128 96 C-128 74.88 -128 53.76 -128 32 C-85.76 32 -43.52 32 0 32 C0 21.44 0 10.88 0 0 Z " fill="#322947" transform="translate(544,1728)"/>
<path d="M0 0 C21.12 0 42.24 0 64 0 C64 10.56 64 21.12 64 32 C74.56 32 85.12 32 96 32 C96 63.68 96 95.36 96 128 C106.56 128 117.12 128 128 128 C128 138.56 128 149.12 128 160 C138.56 160 149.12 160 160 160 C160 181.12 160 202.24 160 224 C170.56 224 181.12 224 192 224 C192 350.72 192 477.44 192 608 C181.44 608 170.88 608 160 608 C160 534.08 160 460.16 160 384 C138.88 384 117.76 384 96 384 C96 373.44 96 362.88 96 352 C106.56 352 117.12 352 128 352 C128 341.44 128 330.88 128 320 C138.56 320 149.12 320 160 320 C160 309.44 160 298.88 160 288 C149.44 288 138.88 288 128 288 C128 256.32 128 224.64 128 192 C117.44 192 106.88 192 96 192 C96 181.44 96 170.88 96 160 C85.44 160 74.88 160 64 160 C64 128.32 64 96.64 64 64 C53.44 64 42.88 64 32 64 C32 53.44 32 42.88 32 32 C21.44 32 10.88 32 0 32 C0 21.44 0 10.88 0 0 Z " fill="#203756" transform="translate(1728,512)"/>
<path d="M0 0 C84.48 0 168.96 0 256 0 C256 10.56 256 21.12 256 32 C287.68 32 319.36 32 352 32 C352 21.44 352 10.88 352 0 C425.92 0 499.84 0 576 0 C576 10.56 576 21.12 576 32 C512.64 32 449.28 32 384 32 C384 42.56 384 53.12 384 64 C373.44 64 362.88 64 352 64 C352 85.12 352 106.24 352 128 C330.88 128 309.76 128 288 128 C288 117.44 288 106.88 288 96 C277.44 96 266.88 96 256 96 C256 85.44 256 74.88 256 64 C245.44 64 234.88 64 224 64 C224 53.44 224 42.88 224 32 C150.08 32 76.16 32 0 32 C0 21.44 0 10.88 0 0 Z " fill="#4174BB" transform="translate(1152,96)"/>
<path d="M0 0 C10.56 0 21.12 0 32 0 C32 63.36 32 126.72 32 192 C42.56 192 53.12 192 64 192 C64 318.72 64 445.44 64 576 C53.44 576 42.88 576 32 576 C32 618.24 32 660.48 32 704 C21.44 704 10.88 704 0 704 C0 651.2 0 598.4 0 544 C10.56 544 21.12 544 32 544 C32 438.4 32 332.8 32 224 C21.44 224 10.88 224 0 224 C0 150.08 0 76.16 0 0 Z " fill="#1A132C" transform="translate(1120,512)"/>
<path d="M0 0 C10.56 0 21.12 0 32 0 C32 95.04 32 190.08 32 288 C0.32 288 -31.36 288 -64 288 C-64 277.44 -64 266.88 -64 256 C-53.44 256 -42.88 256 -32 256 C-32 245.44 -32 234.88 -32 224 C-42.56 224 -53.12 224 -64 224 C-64 192.32 -64 160.64 -64 128 C-53.44 128 -42.88 128 -32 128 C-32 96.32 -32 64.64 -32 32 C-21.44 32 -10.88 32 0 32 C0 21.44 0 10.88 0 0 Z " fill="#4174BB" transform="translate(320,544)"/>
<path d="M0 0 C21.12 0 42.24 0 64 0 C64 10.56 64 21.12 64 32 C74.56 32 85.12 32 96 32 C96 42.56 96 53.12 96 64 C106.56 64 117.12 64 128 64 C128 74.56 128 85.12 128 96 C138.56 96 149.12 96 160 96 C160 106.56 160 117.12 160 128 C117.76 128 75.52 128 32 128 C32 149.12 32 170.24 32 192 C10.88 192 -10.24 192 -32 192 C-32 149.76 -32 107.52 -32 64 C-21.44 64 -10.88 64 0 64 C0 42.88 0 21.76 0 0 Z " fill="#4174BB" transform="translate(1344,1664)"/>
<path d="M0 0 C52.8 0 105.6 0 160 0 C160 21.12 160 42.24 160 64 C191.68 64 223.36 64 256 64 C256 74.56 256 85.12 256 96 C213.76 96 171.52 96 128 96 C128 85.44 128 74.88 128 64 C96.32 64 64.64 64 32 64 C32 74.56 32 85.12 32 96 C-10.24 96 -52.48 96 -96 96 C-96 85.44 -96 74.88 -96 64 C-64.32 64 -32.64 64 0 64 C0 42.88 0 21.76 0 0 Z " fill="#110E1C" transform="translate(512,1664)"/>
<path d="M0 0 C21.12 0 42.24 0 64 0 C64 10.56 64 21.12 64 32 C53.44 32 42.88 32 32 32 C32 84.8 32 137.6 32 192 C42.56 192 53.12 192 64 192 C64 223.68 64 255.36 64 288 C74.56 288 85.12 288 96 288 C96 309.12 96 330.24 96 352 C106.56 352 117.12 352 128 352 C128 362.56 128 373.12 128 384 C106.88 384 85.76 384 64 384 C64 362.88 64 341.76 64 320 C53.44 320 42.88 320 32 320 C32 298.88 32 277.76 32 256 C21.44 256 10.88 256 0 256 C0 171.52 0 87.04 0 0 Z " fill="#203756" transform="translate(64,1024)"/>
<path d="M0 0 C10.56 0 21.12 0 32 0 C32 21.12 32 42.24 32 64 C42.56 64 53.12 64 64 64 C64 85.12 64 106.24 64 128 C74.56 128 85.12 128 96 128 C96 138.56 96 149.12 96 160 C106.56 160 117.12 160 128 160 C128 170.56 128 181.12 128 192 C138.56 192 149.12 192 160 192 C160 244.8 160 297.6 160 352 C149.44 352 138.88 352 128 352 C128 330.88 128 309.76 128 288 C117.44 288 106.88 288 96 288 C96 256.32 96 224.64 96 192 C85.44 192 74.88 192 64 192 C64 181.44 64 170.88 64 160 C53.44 160 42.88 160 32 160 C32 138.88 32 117.76 32 96 C21.44 96 10.88 96 0 96 C0 64.32 0 32.64 0 0 Z " fill="#71680D" transform="translate(1536,608)"/>
<path d="M0 0 C10.56 0 21.12 0 32 0 C32 105.6 32 211.2 32 320 C21.44 320 10.88 320 0 320 C0 267.2 0 214.4 0 160 C-10.56 160 -21.12 160 -32 160 C-32 149.44 -32 138.88 -32 128 C-42.56 128 -53.12 128 -64 128 C-64 117.44 -64 106.88 -64 96 C-53.44 96 -42.88 96 -32 96 C-32 74.88 -32 53.76 -32 32 C-21.44 32 -10.88 32 0 32 C0 21.44 0 10.88 0 0 Z " fill="#E3D320" transform="translate(1696,640)"/>
<path d="M0 0 C63.36 0 126.72 0 192 0 C192 10.56 192 21.12 192 32 C139.2 32 86.4 32 32 32 C32 42.56 32 53.12 32 64 C0.32 64 -31.36 64 -64 64 C-64 74.56 -64 85.12 -64 96 C-74.56 96 -85.12 96 -96 96 C-96 106.56 -96 117.12 -96 128 C-127.68 128 -159.36 128 -192 128 C-192 117.44 -192 106.88 -192 96 C-170.88 96 -149.76 96 -128 96 C-128 85.44 -128 74.88 -128 64 C-117.44 64 -106.88 64 -96 64 C-96 53.44 -96 42.88 -96 32 C-64.32 32 -32.64 32 0 32 C0 21.44 0 10.88 0 0 Z " fill="#203756" transform="translate(960,96)"/>
<path d="M0 0 C13.2 0 26.4 0 40 0 C40 4.62 40 9.24 40 14 C47.92 14 55.84 14 64 14 C64 17.3 64 20.6 64 24 C68.62 24 73.24 24 78 24 C78 27.96 78 31.92 78 36 C73.38 36 68.76 36 64 36 C64 72.3 64 108.6 64 146 C60.04 146 56.08 146 52 146 C52 141.38 52 136.76 52 132 C44.08 132 36.16 132 28 132 C28 127.38 28 122.76 28 118 C23.38 118 18.76 118 14 118 C14 143.74 14 169.48 14 196 C18.62 196 23.24 196 28 196 C28 205.24 28 214.48 28 224 C6.22 224 -15.56 224 -38 224 C-38 219.38 -38 214.76 -38 210 C-46.58 210 -55.16 210 -64 210 C-64 205.38 -64 200.76 -64 196 C-53.44 196 -42.88 196 -32 196 C-32 164.32 -32 132.64 -32 100 C-21.44 100 -10.88 100 0 100 C0 67 0 34 0 0 Z " fill="#E3D320" transform="translate(1760,1404)"/>
<path d="M0 0 C52.8 0 105.6 0 160 0 C160 10.56 160 21.12 160 32 C170.56 32 181.12 32 192 32 C192 42.56 192 53.12 192 64 C139.2 64 86.4 64 32 64 C32 74.56 32 85.12 32 96 C0.32 96 -31.36 96 -64 96 C-64 85.44 -64 74.88 -64 64 C-42.88 64 -21.76 64 0 64 C0 42.88 0 21.76 0 0 Z " fill="#203756" transform="translate(1376,1792)"/>
<path d="M0 0 C21.12 0 42.24 0 64 0 C64 21.12 64 42.24 64 64 C53.44 64 42.88 64 32 64 C32 74.56 32 85.12 32 96 C0.32 96 -31.36 96 -64 96 C-64 106.56 -64 117.12 -64 128 C-95.68 128 -127.36 128 -160 128 C-160 117.44 -160 106.88 -160 96 C-170.56 96 -181.12 96 -192 96 C-192 85.44 -192 74.88 -192 64 C-170.88 64 -149.76 64 -128 64 C-128 74.56 -128 85.12 -128 96 C-117.44 96 -106.88 96 -96 96 C-96 85.44 -96 74.88 -96 64 C-74.88 64 -53.76 64 -32 64 C-32 53.44 -32 42.88 -32 32 C-21.44 32 -10.88 32 0 32 C0 21.44 0 10.88 0 0 Z " fill="#E3E7F9" transform="translate(800,1248)"/>
<path d="M0 0 C10.56 0 21.12 0 32 0 C32 63.36 32 126.72 32 192 C21.44 192 10.88 192 0 192 C0 181.44 0 170.88 0 160 C-21.12 160 -42.24 160 -64 160 C-64 149.44 -64 138.88 -64 128 C-74.56 128 -85.12 128 -96 128 C-96 117.44 -96 106.88 -96 96 C-85.44 96 -74.88 96 -64 96 C-64 85.44 -64 74.88 -64 64 C-42.88 64 -21.76 64 0 64 C0 42.88 0 21.76 0 0 Z " fill="#E3D320" transform="translate(320,1344)"/>
<path d="M0 0 C10.56 0 21.12 0 32 0 C32 10.56 32 21.12 32 32 C53.12 32 74.24 32 96 32 C96 84.8 96 137.6 96 192 C74.88 192 53.76 192 32 192 C32 202.56 32 213.12 32 224 C10.88 224 -10.24 224 -32 224 C-32 213.44 -32 202.88 -32 192 C-21.44 192 -10.88 192 0 192 C0 181.44 0 170.88 0 160 C21.12 160 42.24 160 64 160 C64 128.32 64 96.64 64 64 C42.88 64 21.76 64 0 64 C0 42.88 0 21.76 0 0 Z " fill="#71680D" transform="translate(800,1600)"/>
<path d="M0 0 C10.56 0 21.12 0 32 0 C32 63.36 32 126.72 32 192 C21.44 192 10.88 192 0 192 C0 181.44 0 170.88 0 160 C-10.56 160 -21.12 160 -32 160 C-32 149.44 -32 138.88 -32 128 C-42.56 128 -53.12 128 -64 128 C-64 106.88 -64 85.76 -64 64 C-53.44 64 -42.88 64 -32 64 C-32 53.44 -32 42.88 -32 32 C-21.44 32 -10.88 32 0 32 C0 21.44 0 10.88 0 0 Z " fill="#4174BB" transform="translate(1024,1536)"/>
<path d="M0 0 C10.56 0 21.12 0 32 0 C32 52.8 32 105.6 32 160 C21.44 160 10.88 160 0 160 C0 202.24 0 244.48 0 288 C10.56 288 21.12 288 32 288 C32 291.3 32 294.6 32 298 C30.02 298 28.04 298 26 298 C26 302.62 26 307.24 26 312 C6.86 312 -12.28 312 -32 312 C-32 251.28 -32 190.56 -32 128 C-21.44 128 -10.88 128 0 128 C0 85.76 0 43.52 0 0 Z " fill="#71680D" transform="translate(1696,960)"/>
<path d="M0 0 C21.12 0 42.24 0 64 0 C64 31.68 64 63.36 64 96 C53.44 96 42.88 96 32 96 C32 106.56 32 117.12 32 128 C21.44 128 10.88 128 0 128 C0 138.56 0 149.12 0 160 C-10.56 160 -21.12 160 -32 160 C-32 117.76 -32 75.52 -32 32 C-21.44 32 -10.88 32 0 32 C0 21.44 0 10.88 0 0 Z " fill="#4174BB" transform="translate(1568,352)"/>
<path d="M0 0 C21.12 0 42.24 0 64 0 C64 10.56 64 21.12 64 32 C53.44 32 42.88 32 32 32 C32 42.56 32 53.12 32 64 C21.44 64 10.88 64 0 64 C0 74.56 0 85.12 0 96 C-42.24 96 -84.48 96 -128 96 C-128 106.56 -128 117.12 -128 128 C-149.12 128 -170.24 128 -192 128 C-192 117.44 -192 106.88 -192 96 C-181.44 96 -170.88 96 -160 96 C-160 85.44 -160 74.88 -160 64 C-117.76 64 -75.52 64 -32 64 C-32 53.44 -32 42.88 -32 32 C-21.44 32 -10.88 32 0 32 C0 21.44 0 10.88 0 0 Z " fill="#203756" transform="translate(1216,288)"/>
<path d="M0 0 C10.56 0 21.12 0 32 0 C32 21.12 32 42.24 32 64 C21.44 64 10.88 64 0 64 C0 74.56 0 85.12 0 96 C-10.56 96 -21.12 96 -32 96 C-32 106.56 -32 117.12 -32 128 C-53.12 128 -74.24 128 -96 128 C-96 138.56 -96 149.12 -96 160 C-117.12 160 -138.24 160 -160 160 C-160 149.44 -160 138.88 -160 128 C-149.44 128 -138.88 128 -128 128 C-128 117.44 -128 106.88 -128 96 C-106.88 96 -85.76 96 -64 96 C-64 85.44 -64 74.88 -64 64 C-53.44 64 -42.88 64 -32 64 C-32 53.44 -32 42.88 -32 32 C-21.44 32 -10.88 32 0 32 C0 21.44 0 10.88 0 0 Z " fill="#71680D" transform="translate(992,1728)"/>
<path d="M0 0 C42.24 0 84.48 0 128 0 C128 10.56 128 21.12 128 32 C96.32 32 64.64 32 32 32 C32 42.56 32 53.12 32 64 C-31.36 64 -94.72 64 -160 64 C-160 53.44 -160 42.88 -160 32 C-107.2 32 -54.4 32 0 32 C0 21.44 0 10.88 0 0 Z " fill="#A5B2EF" transform="translate(704,1408)"/>
<path d="M0 0 C10.56 0 21.12 0 32 0 C32 21.12 32 42.24 32 64 C42.56 64 53.12 64 64 64 C64 74.56 64 85.12 64 96 C85.12 96 106.24 96 128 96 C128 106.56 128 117.12 128 128 C138.56 128 149.12 128 160 128 C160 138.56 160 149.12 160 160 C128.32 160 96.64 160 64 160 C64 149.44 64 138.88 64 128 C53.44 128 42.88 128 32 128 C32 117.44 32 106.88 32 96 C21.44 96 10.88 96 0 96 C0 64.32 0 32.64 0 0 Z " fill="#71680D" transform="translate(192,1408)"/>
<path d="M0 0 C31.68 0 63.36 0 96 0 C96 42.24 96 84.48 96 128 C85.44 128 74.88 128 64 128 C64 117.44 64 106.88 64 96 C42.88 96 21.76 96 0 96 C0 64.32 0 32.64 0 0 Z " fill="#E3E7F9" transform="translate(768,544)"/>
<path d="M0 0 C18.48 0 36.96 0 56 0 C56 4.62 56 9.24 56 14 C59.96 14 63.92 14 68 14 C68 23.24 68 32.48 68 42 C72.62 42 77.24 42 82 42 C82 45.96 82 49.92 82 54 C85.96 54 89.92 54 94 54 C94 58.62 94 63.24 94 68 C98.62 68 103.24 68 108 68 C108 72.62 108 77.24 108 82 C111.96 82 115.92 82 120 82 C120 85.3 120 88.6 120 92 C128.58 92 137.16 92 146 92 C146 93.32 146 94.64 146 96 C140.06 96 134.12 96 128 96 C128 106.56 128 117.12 128 128 C106.88 128 85.76 128 64 128 C64 117.44 64 106.88 64 96 C53.44 96 42.88 96 32 96 C32 85.44 32 74.88 32 64 C21.44 64 10.88 64 0 64 C0 42.88 0 21.76 0 0 Z " fill="#4174BB" transform="translate(1472,1600)"/>
<path d="M0 0 C10.56 0 21.12 0 32 0 C32 31.68 32 63.36 32 96 C42.56 96 53.12 96 64 96 C64 117.12 64 138.24 64 160 C74.56 160 85.12 160 96 160 C96 170.56 96 181.12 96 192 C74.88 192 53.76 192 32 192 C32 181.44 32 170.88 32 160 C21.44 160 10.88 160 0 160 C0 107.2 0 54.4 0 0 Z " fill="#203756" transform="translate(288,992)"/>
<path d="M0 0 C84.48 0 168.96 0 256 0 C256 21.12 256 42.24 256 64 C245.44 64 234.88 64 224 64 C224 53.44 224 42.88 224 32 C150.08 32 76.16 32 0 32 C0 21.44 0 10.88 0 0 Z " fill="#71680D" transform="translate(1152,96)"/>
<path d="M0 0 C10.56 0 21.12 0 32 0 C32 10.56 32 21.12 32 32 C42.56 32 53.12 32 64 32 C64 21.44 64 10.88 64 0 C74.56 0 85.12 0 96 0 C96 42.24 96 84.48 96 128 C85.44 128 74.88 128 64 128 C64 117.44 64 106.88 64 96 C53.44 96 42.88 96 32 96 C32 85.44 32 74.88 32 64 C21.44 64 10.88 64 0 64 C0 42.88 0 21.76 0 0 Z " fill="#4174BB" transform="translate(1760,1120)"/>
<path d="M0 0 C63.36 0 126.72 0 192 0 C192 10.56 192 21.12 192 32 C202.56 32 213.12 32 224 32 C224 42.56 224 53.12 224 64 C202.88 64 181.76 64 160 64 C160 53.44 160 42.88 160 32 C107.2 32 54.4 32 0 32 C0 21.44 0 10.88 0 0 Z " fill="#71680D" transform="translate(1280,288)"/>
<path d="M0 0 C21.12 0 42.24 0 64 0 C64 10.56 64 21.12 64 32 C74.56 32 85.12 32 96 32 C96 42.56 96 53.12 96 64 C106.56 64 117.12 64 128 64 C128 74.56 128 85.12 128 96 C138.56 96 149.12 96 160 96 C160 106.56 160 117.12 160 128 C138.88 128 117.76 128 96 128 C96 117.44 96 106.88 96 96 C85.44 96 74.88 96 64 96 C64 85.44 64 74.88 64 64 C53.44 64 42.88 64 32 64 C32 53.44 32 42.88 32 32 C21.44 32 10.88 32 0 32 C0 21.44 0 10.88 0 0 Z " fill="#1A132C" transform="translate(864,288)"/>
<path d="M0 0 C31.68 0 63.36 0 96 0 C96 10.56 96 21.12 96 32 C117.12 32 138.24 32 160 32 C160 42.56 160 53.12 160 64 C170.56 64 181.12 64 192 64 C192 74.56 192 85.12 192 96 C170.88 96 149.76 96 128 96 C128 85.44 128 74.88 128 64 C106.88 64 85.76 64 64 64 C64 53.44 64 42.88 64 32 C42.88 32 21.76 32 0 32 C0 21.44 0 10.88 0 0 Z " fill="#1A132C" transform="translate(672,192)"/>
<path d="M0 0 C10.56 0 21.12 0 32 0 C32 63.36 32 126.72 32 192 C21.44 192 10.88 192 0 192 C0 128.64 0 65.28 0 0 Z " fill="#203756" transform="translate(1024,1536)"/>
<path d="M0 0 C10.56 0 21.12 0 32 0 C32 31.68 32 63.36 32 96 C21.44 96 10.88 96 0 96 C0 106.56 0 117.12 0 128 C-10.56 128 -21.12 128 -32 128 C-32 96.32 -32 64.64 -32 32 C-21.44 32 -10.88 32 0 32 C0 21.44 0 10.88 0 0 Z " fill="#71680D" transform="translate(320,864)"/>
<path d="M0 0 C21.12 0 42.24 0 64 0 C64 10.56 64 21.12 64 32 C53.44 32 42.88 32 32 32 C32 42.56 32 53.12 32 64 C21.44 64 10.88 64 0 64 C0 85.12 0 106.24 0 128 C-10.56 128 -21.12 128 -32 128 C-32 96.32 -32 64.64 -32 32 C-21.44 32 -10.88 32 0 32 C0 21.44 0 10.88 0 0 Z " fill="#4174BB" transform="translate(1664,608)"/>
<path d="M0 0 C10.56 0 21.12 0 32 0 C32 31.68 32 63.36 32 96 C0.32 96 -31.36 96 -64 96 C-64 85.44 -64 74.88 -64 64 C-53.44 64 -42.88 64 -32 64 C-32 53.44 -32 42.88 -32 32 C-21.44 32 -10.88 32 0 32 C0 21.44 0 10.88 0 0 Z " fill="#203756" transform="translate(1952,320)"/>
<path d="M0 0 C21.12 0 42.24 0 64 0 C64 10.56 64 21.12 64 32 C53.44 32 42.88 32 32 32 C32 42.56 32 53.12 32 64 C10.88 64 -10.24 64 -32 64 C-32 74.56 -32 85.12 -32 96 C-42.56 96 -53.12 96 -64 96 C-64 74.88 -64 53.76 -64 32 C-42.88 32 -21.76 32 0 32 C0 21.44 0 10.88 0 0 Z " fill="#71680D" transform="translate(1568,224)"/>
<path d="M0 0 C63.36 0 126.72 0 192 0 C192 10.56 192 21.12 192 32 C128.64 32 65.28 32 0 32 C0 21.44 0 10.88 0 0 Z " fill="#71680D" transform="translate(1728,128)"/>
<path d="M0 0 C63.36 0 126.72 0 192 0 C192 10.56 192 21.12 192 32 C128.64 32 65.28 32 0 32 C0 21.44 0 10.88 0 0 Z " fill="#71680D" transform="translate(1536,96)"/>
<path d="M0 0 C10.56 0 21.12 0 32 0 C32 54.78 32 109.56 32 166 C24.08 166 16.16 166 8 166 C8 161.38 8 156.76 8 152 C5.36 152 2.72 152 0 152 C0 101.84 0 51.68 0 0 Z " fill="#203756" transform="translate(1856,1120)"/>
<path d="M0 0 C10.56 0 21.12 0 32 0 C32 21.12 32 42.24 32 64 C-10.24 64 -52.48 64 -96 64 C-96 53.44 -96 42.88 -96 32 C-64.32 32 -32.64 32 0 32 C0 21.44 0 10.88 0 0 Z " fill="#203756" transform="translate(1504,96)"/>
<path d="M0 0 C21.12 0 42.24 0 64 0 C64 10.56 64 21.12 64 32 C53.44 32 42.88 32 32 32 C32 53.12 32 74.24 32 96 C21.44 96 10.88 96 0 96 C0 64.32 0 32.64 0 0 Z " fill="#71680D" transform="translate(672,1824)"/>
<path d="M0 0 C21.12 0 42.24 0 64 0 C64 21.12 64 42.24 64 64 C42.88 64 21.76 64 0 64 C0 42.88 0 21.76 0 0 Z " fill="#FFFFFF" transform="translate(1248,1728)"/>
<path d="M0 0 C21.12 0 42.24 0 64 0 C64 21.12 64 42.24 64 64 C42.88 64 21.76 64 0 64 C0 42.88 0 21.76 0 0 Z " fill="#FFFFFF" transform="translate(1248,1568)"/>
<path d="M0 0 C21.12 0 42.24 0 64 0 C64 10.56 64 21.12 64 32 C74.56 32 85.12 32 96 32 C96 42.56 96 53.12 96 64 C74.88 64 53.76 64 32 64 C32 53.44 32 42.88 32 32 C21.44 32 10.88 32 0 32 C0 21.44 0 10.88 0 0 Z " fill="#71680D" transform="translate(1728,512)"/>
<path d="M0 0 C21.12 0 42.24 0 64 0 C64 10.56 64 21.12 64 32 C53.44 32 42.88 32 32 32 C32 42.56 32 53.12 32 64 C10.88 64 -10.24 64 -32 64 C-32 53.44 -32 42.88 -32 32 C-21.44 32 -10.88 32 0 32 C0 21.44 0 10.88 0 0 Z " fill="#203756" transform="translate(1792,448)"/>
<path d="M0 0 C21.12 0 42.24 0 64 0 C64 10.56 64 21.12 64 32 C74.56 32 85.12 32 96 32 C96 42.56 96 53.12 96 64 C74.88 64 53.76 64 32 64 C32 53.44 32 42.88 32 32 C21.44 32 10.88 32 0 32 C0 21.44 0 10.88 0 0 Z " fill="#1A132C" transform="translate(1024,448)"/>
<path d="M0 0 C42.24 0 84.48 0 128 0 C128 10.56 128 21.12 128 32 C85.76 32 43.52 32 0 32 C0 21.44 0 10.88 0 0 Z " fill="#3D4985" transform="translate(576,384)"/>
<path d="M0 0 C10.56 0 21.12 0 32 0 C32 36.3 32 72.6 32 110 C28.04 110 24.08 110 20 110 C20 105.38 20 100.76 20 96 C13.4 96 6.8 96 0 96 C0 64.32 0 32.64 0 0 Z " fill="#71680D" transform="translate(1792,1440)"/>
<path d="M0 0 C31.68 0 63.36 0 96 0 C96 10.56 96 21.12 96 32 C64.32 32 32.64 32 0 32 C0 21.44 0 10.88 0 0 Z " fill="#71680D" transform="translate(1472,1824)"/>
<path d="M0 0 C31.68 0 63.36 0 96 0 C96 10.56 96 21.12 96 32 C64.32 32 32.64 32 0 32 C0 21.44 0 10.88 0 0 Z " fill="#71680D" transform="translate(1568,1792)"/>
<path d="M0 0 C21.12 0 42.24 0 64 0 C64 21.12 64 42.24 64 64 C53.44 64 42.88 64 32 64 C32 53.44 32 42.88 32 32 C21.44 32 10.88 32 0 32 C0 21.44 0 10.88 0 0 Z " fill="#E3D320" transform="translate(1248,1792)"/>
<path d="M0 0 C10.56 0 21.12 0 32 0 C32 31.68 32 63.36 32 96 C21.44 96 10.88 96 0 96 C0 64.32 0 32.64 0 0 Z " fill="#1A132C" transform="translate(1088,1216)"/>
<path d="M0 0 C10.56 0 21.12 0 32 0 C32 31.68 32 63.36 32 96 C21.44 96 10.88 96 0 96 C0 64.32 0 32.64 0 0 Z " fill="#71680D" transform="translate(1888,1024)"/>
<path d="M0 0 C10.56 0 21.12 0 32 0 C32 21.12 32 42.24 32 64 C10.88 64 -10.24 64 -32 64 C-32 53.44 -32 42.88 -32 32 C-21.44 32 -10.88 32 0 32 C0 21.44 0 10.88 0 0 Z " fill="#E3D320" transform="translate(1856,832)"/>
<path d="M0 0 C10.56 0 21.12 0 32 0 C32 31.68 32 63.36 32 96 C21.44 96 10.88 96 0 96 C0 64.32 0 32.64 0 0 Z " fill="#71680D" transform="translate(1504,512)"/>
<path d="M0 0 C17.16 0 34.32 0 52 0 C52 4.62 52 9.24 52 14 C45.4 14 38.8 14 32 14 C32 24.56 32 35.12 32 46 C10.88 46 -10.24 46 -32 46 C-32 35.44 -32 24.88 -32 14 C-21.44 14 -10.88 14 0 14 C0 9.38 0 4.76 0 0 Z " fill="#71680D" transform="translate(1696,1746)"/>
<path d="M0 0 C10.56 0 21.12 0 32 0 C32 21.12 32 42.24 32 64 C21.44 64 10.88 64 0 64 C0 42.88 0 21.76 0 0 Z " fill="#71680D" transform="translate(736,1952)"/>
<path d="M0 0 C10.56 0 21.12 0 32 0 C32 21.12 32 42.24 32 64 C21.44 64 10.88 64 0 64 C0 42.88 0 21.76 0 0 Z " fill="#A5B2EF" transform="translate(928,1280)"/>
<path d="M0 0 C10.56 0 21.12 0 32 0 C32 21.12 32 42.24 32 64 C21.44 64 10.88 64 0 64 C0 42.88 0 21.76 0 0 Z " fill="#A5B2EF" transform="translate(960,1216)"/>
<path d="M0 0 C10.56 0 21.12 0 32 0 C32 21.12 32 42.24 32 64 C21.44 64 10.88 64 0 64 C0 42.88 0 21.76 0 0 Z " fill="#A5B2EF" transform="translate(992,1152)"/>
<path d="M0 0 C10.56 0 21.12 0 32 0 C32 21.12 32 42.24 32 64 C21.44 64 10.88 64 0 64 C0 42.88 0 21.76 0 0 Z " fill="#4174BB" transform="translate(1664,800)"/>
<path d="M0 0 C21.12 0 42.24 0 64 0 C64 10.56 64 21.12 64 32 C42.88 32 21.76 32 0 32 C0 21.44 0 10.88 0 0 Z " fill="#3D4985" transform="translate(800,480)"/>
<path d="M0 0 C21.12 0 42.24 0 64 0 C64 10.56 64 21.12 64 32 C42.88 32 21.76 32 0 32 C0 21.44 0 10.88 0 0 Z " fill="#3D4985" transform="translate(704,416)"/>
<path d="M0 0 C10.56 0 21.12 0 32 0 C32 21.12 32 42.24 32 64 C21.44 64 10.88 64 0 64 C0 42.88 0 21.76 0 0 Z " fill="#4174BB" transform="translate(1536,288)"/>
<path d="M0 0 C21.12 0 42.24 0 64 0 C64 10.56 64 21.12 64 32 C42.88 32 21.76 32 0 32 C0 21.44 0 10.88 0 0 Z " fill="#701010" transform="translate(480,256)"/>
<path d="M0 0 C10.56 0 21.12 0 32 0 C32 21.12 32 42.24 32 64 C21.44 64 10.88 64 0 64 C0 42.88 0 21.76 0 0 Z " fill="#203756" transform="translate(1952,224)"/>
<path d="M0 0 C10.56 0 21.12 0 32 0 C32 21.12 32 42.24 32 64 C21.44 64 10.88 64 0 64 C0 42.88 0 21.76 0 0 Z " fill="#4174BB" transform="translate(1504,96)"/>
<path d="M0 0 C10.56 0 21.12 0 32 0 C32 12.54 32 25.08 32 38 C24.08 38 16.16 38 8 38 C8 33.38 8 28.76 8 24 C5.36 24 2.72 24 0 24 C0 16.08 0 8.16 0 0 Z " fill="#71680D" transform="translate(1856,1248)"/>
<path d="M0 0 C10.56 0 21.12 0 32 0 C32 10.56 32 21.12 32 32 C21.44 32 10.88 32 0 32 C0 21.44 0 10.88 0 0 Z " fill="#71680D" transform="translate(768,1920)"/>
<path d="M0 0 C10.56 0 21.12 0 32 0 C32 10.56 32 21.12 32 32 C21.44 32 10.88 32 0 32 C0 21.44 0 10.88 0 0 Z " fill="#71680D" transform="translate(704,1920)"/>
<path d="M0 0 C10.56 0 21.12 0 32 0 C32 10.56 32 21.12 32 32 C21.44 32 10.88 32 0 32 C0 21.44 0 10.88 0 0 Z " fill="#71680D" transform="translate(800,1888)"/>
<path d="M0 0 C10.56 0 21.12 0 32 0 C32 10.56 32 21.12 32 32 C21.44 32 10.88 32 0 32 C0 21.44 0 10.88 0 0 Z " fill="#323E4F" transform="translate(1504,1792)"/>
<path d="M0 0 C10.56 0 21.12 0 32 0 C32 10.56 32 21.12 32 32 C21.44 32 10.88 32 0 32 C0 21.44 0 10.88 0 0 Z " fill="#1D1D2A" transform="translate(1120,1696)"/>
<path d="M0 0 C10.56 0 21.12 0 32 0 C32 10.56 32 21.12 32 32 C21.44 32 10.88 32 0 32 C0 21.44 0 10.88 0 0 Z " fill="#71680D" transform="translate(1024,1696)"/>
<path d="M0 0 C10.56 0 21.12 0 32 0 C32 10.56 32 21.12 32 32 C21.44 32 10.88 32 0 32 C0 21.44 0 10.88 0 0 Z " fill="#1D1D2A" transform="translate(1152,1664)"/>
<path d="M0 0 C10.56 0 21.12 0 32 0 C32 10.56 32 21.12 32 32 C21.44 32 10.88 32 0 32 C0 21.44 0 10.88 0 0 Z " fill="#1D1D2A" transform="translate(1120,1632)"/>
<path d="M0 0 C10.56 0 21.12 0 32 0 C32 10.56 32 21.12 32 32 C21.44 32 10.88 32 0 32 C0 21.44 0 10.88 0 0 Z " fill="#203756" transform="translate(1472,1600)"/>
<path d="M0 0 C10.56 0 21.12 0 32 0 C32 10.56 32 21.12 32 32 C21.44 32 10.88 32 0 32 C0 21.44 0 10.88 0 0 Z " fill="#BCB031" transform="translate(1440,1568)"/>
<path d="M0 0 C10.56 0 21.12 0 32 0 C32 10.56 32 21.12 32 32 C21.44 32 10.88 32 0 32 C0 21.44 0 10.88 0 0 Z " fill="#1A132C" transform="translate(1024,1408)"/>
<path d="M0 0 C10.56 0 21.12 0 32 0 C32 10.56 32 21.12 32 32 C21.44 32 10.88 32 0 32 C0 21.44 0 10.88 0 0 Z " fill="#1A132C" transform="translate(1056,1376)"/>
<path d="M0 0 C10.56 0 21.12 0 32 0 C32 10.56 32 21.12 32 32 C21.44 32 10.88 32 0 32 C0 21.44 0 10.88 0 0 Z " fill="#A5B2EF" transform="translate(864,1376)"/>
<path d="M0 0 C10.56 0 21.12 0 32 0 C32 10.56 32 21.12 32 32 C21.44 32 10.88 32 0 32 C0 21.44 0 10.88 0 0 Z " fill="#A5B2EF" transform="translate(896,1344)"/>
<path d="M0 0 C10.56 0 21.12 0 32 0 C32 10.56 32 21.12 32 32 C21.44 32 10.88 32 0 32 C0 21.44 0 10.88 0 0 Z " fill="#1A132C" transform="translate(1056,1312)"/>
<path d="M0 0 C10.56 0 21.12 0 32 0 C32 10.56 32 21.12 32 32 C21.44 32 10.88 32 0 32 C0 21.44 0 10.88 0 0 Z " fill="#E3D320" transform="translate(1856,768)"/>
<path d="M0 0 C10.56 0 21.12 0 32 0 C32 10.56 32 21.12 32 32 C21.44 32 10.88 32 0 32 C0 21.44 0 10.88 0 0 Z " fill="#3D4985" transform="translate(992,608)"/>
<path d="M0 0 C10.56 0 21.12 0 32 0 C32 10.56 32 21.12 32 32 C21.44 32 10.88 32 0 32 C0 21.44 0 10.88 0 0 Z " fill="#E3E7F9" transform="translate(896,608)"/>
<path d="M0 0 C10.56 0 21.12 0 32 0 C32 10.56 32 21.12 32 32 C21.44 32 10.88 32 0 32 C0 21.44 0 10.88 0 0 Z " fill="#3D4985" transform="translate(960,576)"/>
<path d="M0 0 C10.56 0 21.12 0 32 0 C32 10.56 32 21.12 32 32 C21.44 32 10.88 32 0 32 C0 21.44 0 10.88 0 0 Z " fill="#3D4985" transform="translate(928,544)"/>
<path d="M0 0 C10.56 0 21.12 0 32 0 C32 10.56 32 21.12 32 32 C21.44 32 10.88 32 0 32 C0 21.44 0 10.88 0 0 Z " fill="#E3D320" transform="translate(288,544)"/>
<path d="M0 0 C10.56 0 21.12 0 32 0 C32 10.56 32 21.12 32 32 C21.44 32 10.88 32 0 32 C0 21.44 0 10.88 0 0 Z " fill="#3D4985" transform="translate(896,512)"/>
<path d="M0 0 C10.56 0 21.12 0 32 0 C32 10.56 32 21.12 32 32 C21.44 32 10.88 32 0 32 C0 21.44 0 10.88 0 0 Z " fill="#E3D320" transform="translate(320,512)"/>
<path d="M0 0 C10.56 0 21.12 0 32 0 C32 10.56 32 21.12 32 32 C21.44 32 10.88 32 0 32 C0 21.44 0 10.88 0 0 Z " fill="#71680D" transform="translate(320,480)"/>
<path d="M0 0 C10.56 0 21.12 0 32 0 C32 10.56 32 21.12 32 32 C21.44 32 10.88 32 0 32 C0 21.44 0 10.88 0 0 Z " fill="#3D4985" transform="translate(768,448)"/>
<path d="M0 0 C10.56 0 21.12 0 32 0 C32 10.56 32 21.12 32 32 C21.44 32 10.88 32 0 32 C0 21.44 0 10.88 0 0 Z " fill="#203756" transform="translate(1856,416)"/>
<path d="M0 0 C10.56 0 21.12 0 32 0 C32 10.56 32 21.12 32 32 C21.44 32 10.88 32 0 32 C0 21.44 0 10.88 0 0 Z " fill="#E3D320" transform="translate(1920,352)"/>
<path d="M0 0 C10.56 0 21.12 0 32 0 C32 10.56 32 21.12 32 32 C21.44 32 10.88 32 0 32 C0 21.44 0 10.88 0 0 Z " fill="#203756" transform="translate(1536,288)"/>
<path d="M0 0 C10.56 0 21.12 0 32 0 C32 10.56 32 21.12 32 32 C21.44 32 10.88 32 0 32 C0 21.44 0 10.88 0 0 Z " fill="#203756" transform="translate(1920,192)"/>
<path d="M0 0 C10.56 0 21.12 0 32 0 C32 10.56 32 21.12 32 32 C21.44 32 10.88 32 0 32 C0 21.44 0 10.88 0 0 Z " fill="#203756" transform="translate(1888,160)"/>
<path d="M0 0 C10.56 0 21.12 0 32 0 C32 10.56 32 21.12 32 32 C21.44 32 10.88 32 0 32 C0 21.44 0 10.88 0 0 Z " fill="#203756" transform="translate(1504,96)"/>
<path d="M0 0 C2.64 0 5.28 0 8 0 C8 3.3 8 6.6 8 10 C15.92 10 23.84 10 32 10 C32 13.3 32 16.6 32 20 C36.62 20 41.24 20 46 20 C46 23.96 46 27.92 46 32 C30.82 32 15.64 32 0 32 C0 21.44 0 10.88 0 0 Z " fill="#BCB031" transform="translate(1792,1408)"/>
<path d="M0 0 C9.24 0 18.48 0 28 0 C28 9.24 28 18.48 28 28 C18.76 28 9.52 28 0 28 C0 18.76 0 9.52 0 0 Z " fill="#BCB031" transform="translate(1760,1600)"/>
<path d="M0 0 C7.92 0 15.84 0 24 0 C24 10.56 24 21.12 24 32 C16.08 32 8.16 32 0 32 C0 21.44 0 10.88 0 0 Z " fill="#203756" transform="translate(1504,1568)"/>
<path d="M0 0 C10.56 0 21.12 0 32 0 C32 3.3 32 6.6 32 10 C30.02 10 28.04 10 26 10 C26 14.62 26 19.24 26 24 C17.42 24 8.84 24 0 24 C0 16.08 0 8.16 0 0 Z " fill="#4174BB" transform="translate(1696,1248)"/>
<path d="M0 0 C4.62 0 9.24 0 14 0 C14 3.96 14 7.92 14 12 C9.38 12 4.76 12 0 12 C0 8.04 0 4.08 0 0 Z " fill="#71680D" transform="translate(1824,1428)"/>
<path d="M0 0 C0.66 0 1.32 0 2 0 C2 0.66 2 1.32 2 2 C2.66 2 3.32 2 4 2 C4 2.66 4 3.32 4 4 C5.32 4 6.64 4 8 4 C8 4.66 8 5.32 8 6 C6.02 6 4.04 6 2 6 C2 5.34 2 4.68 2 4 C1.34 4 0.68 4 0 4 C0 2.68 0 1.36 0 0 Z " fill="#000000" transform="translate(1090,544)"/>
<path d="M0 0 C0.66 0 1.32 0 2 0 C2 3.3 2 6.6 2 10 C1.34 10 0.68 10 0 10 C0 9.34 0 8.68 0 8 C-0.66 8 -1.32 8 -2 8 C-2 7.34 -2 6.68 -2 6 C-1.34 6 -0.68 6 0 6 C0 4.02 0 2.04 0 0 Z " fill="#000000" transform="translate(1068,514)"/>
<path d="M0 0 C1.98 0 3.96 0 6 0 C6 0.66 6 1.32 6 2 C4.68 2 3.36 2 2 2 C2 3.32 2 4.64 2 6 C1.34 6 0.68 6 0 6 C0 4.02 0 2.04 0 0 Z " fill="#000000" transform="translate(1082,532)"/>
<path d="M0 0 C0.66 0 1.32 0 2 0 C2 1.98 2 3.96 2 6 C0.68 6 -0.64 6 -2 6 C-2 4.68 -2 3.36 -2 2 C-1.34 2 -0.68 2 0 2 C0 1.34 0 0.68 0 0 Z " fill="#000000" transform="translate(1062,532)"/>
</svg>
